<svg width="189" height="58" xmlns="http://www.w3.org/2000/svg">
    <defs>
        <linearGradient x1="100%" y1="50%" x2="50%" y2="50%" id="a">
            <stop stop-color="#314CD1" offset="0%"/>
            <stop stop-color="#5982F1" offset="100%"/>
        </linearGradient>
        <linearGradient x1="14.066%" y1="88.403%" x2="87.611%" y2="88.403%" id="b">
            <stop stop-color="#5982F1" offset="0%"/>
            <stop stop-color="#314CD1" offset="44.388%"/>
            <stop stop-color="#5982F1" offset="100%"/>
        </linearGradient>
        <linearGradient x1="14.066%" y1="88.403%" x2="87.611%" y2="88.403%" id="c">
            <stop stop-color="#5982F1" offset="0%"/>
            <stop stop-color="#314CD1" offset="51.589%"/>
            <stop stop-color="#5982F1" offset="100%"/>
        </linearGradient>
        <linearGradient x1="28.175%" y1="0%" x2="73.981%" y2="0%" id="d">
            <stop stop-color="#5982F1" offset="0%"/>
            <stop stop-color="#314CD1" offset="48.56%"/>
            <stop stop-color="#5982F1" offset="100%"/>
        </linearGradient>
        <linearGradient x1="3.472%" y1="41.805%" x2="41.004%" y2="41.805%" id="e">
            <stop stop-color="#314CD1" offset="0%"/>
            <stop stop-color="#5982F1" offset="100%"/>
        </linearGradient>
        <linearGradient x1="16.721%" y1="21.465%" x2="75.624%" y2="27.893%" id="f">
            <stop stop-color="#5982F1" offset="0%"/>
            <stop stop-color="#314CD1" offset="49.918%"/>
            <stop stop-color="#5982F1" offset="100%"/>
        </linearGradient>
        <linearGradient x1="-6.568%" y1="0%" x2="33.393%" y2="0%" id="g">
            <stop stop-color="#314CD1" offset="0%"/>
            <stop stop-color="#5982F1" offset="100%"/>
        </linearGradient>
        <linearGradient x1="105.72%" y1="0%" x2="68.891%" y2="0%" id="h">
            <stop stop-color="#314CD1" offset="0%"/>
            <stop stop-color="#5982F1" offset="100%"/>
        </linearGradient>
        <linearGradient x1="-6.568%" y1="0%" x2="100%" y2="0%" id="i">
            <stop stop-color="#314CD1" offset="0%"/>
            <stop stop-color="#5982F1" offset="29.425%"/>
            <stop stop-color="#5982F1" offset="78.349%"/>
            <stop stop-color="#3F60DC" offset="100%"/>
        </linearGradient>
        <linearGradient x1="24.337%" y1="-26.714%" x2="24.337%" y2="29.478%" id="j">
            <stop stop-color="#314CD1" offset="0%"/>
            <stop stop-color="#5982F1" offset="100%"/>
        </linearGradient>
        <linearGradient x1="109.552%" y1="0%" x2="41.955%" y2="0%" id="k">
            <stop stop-color="#314CD1" offset="0%"/>
            <stop stop-color="#5982F1" offset="100%"/>
        </linearGradient>
        <linearGradient x1="-6.568%" y1="0%" x2="27.193%" y2="0%" id="l">
            <stop stop-color="#314CD1" offset="0%"/>
            <stop stop-color="#5982F1" offset="100%"/>
        </linearGradient>
        <linearGradient x1="-12.565%" y1="100%" x2="81.867%" y2="78.473%" id="m">
            <stop stop-color="#314CD1" offset="0%"/>
            <stop stop-color="#5982F1" offset="100%"/>
        </linearGradient>
    </defs>
    <g fill="none" fill-rule="evenodd">
        <g fill-rule="nonzero">
            <path d="M27.106 6.776a1.68 1.68 0 1 1 0-3.36h6.459a1.68 1.68 0 1 1 0 3.36h-6.46z" fill="url(#a)" transform="rotate(135 34.206 18.776)"/>
            <path d="M20.666 39.306 38.982 20.99l-2.376-2.376L18.29 36.93l2.376 2.376zm0 0c-.545.545-.901 1.124-1.072 1.704a2.819 2.819 0 0 0 0 1.619c.17.58.527 1.159 1.072 1.704.546.545 1.124.901 1.704 1.072.538.158 1.081.158 1.619 0 .58-.17 1.159-.527 1.704-1.072l15.578-15.578a1.68 1.68 0 1 1 2.376 2.376L28.069 46.709c-.93.93-1.993 1.585-3.132 1.92a6.178 6.178 0 0 1-3.515 0c-1.138-.335-2.201-.99-3.132-1.92-.93-.93-1.584-1.994-1.92-3.132a6.178 6.178 0 0 1 0-3.515c.336-1.138.99-2.201 1.92-3.132l18.316-18.316c.546-.545.902-1.124 1.073-1.704a2.819 2.819 0 0 0 0-1.619c-.171-.58-.527-1.158-1.073-1.704-.545-.545-1.123-.901-1.704-1.072a2.819 2.819 0 0 0-1.618 0c-.58.17-1.159.527-1.704 1.072L9.486 35.681a1.68 1.68 0 1 1-2.376-2.376l22.094-22.094c.93-.93 1.993-1.585 3.131-1.92a6.178 6.178 0 0 1 3.516 0c1.138.335 2.2.99 3.131 1.92.931.93 1.585 1.994 1.92 3.132a6.178 6.178 0 0 1 0 3.515c-.335 1.139-.989 2.201-1.92 3.132L20.666 39.306z" fill="#5982F1"/>
            <path d="M2.287 32.854a1.68 1.68 0 1 1 0-3.36h14.318a1.68 1.68 0 1 1 0 3.36H2.287z" fill="url(#b)" transform="rotate(135 11.797 31.098)"/>
            <path d="M2.563 8.787a1.68 1.68 0 1 1 2.95-1.609c.268.492.652.876 1.144 1.144.531.29 1.192.447 1.964.447h8.705a1.68 1.68 0 1 1 0 3.36H8.62c-1.317 0-2.53-.289-3.572-.857a6.178 6.178 0 0 1-2.486-2.485z" fill="url(#c)" transform="rotate(135 19.102 15.933)"/>
            <path d="M32.874 18.361a1.68 1.68 0 1 1 0 3.36H6.971a1.68 1.68 0 1 1 0-3.36h25.903z" fill="url(#d)" transform="rotate(135 22.466 26.294)"/>
            <path d="M25.59 17.395a1.68 1.68 0 0 1 0-3.36h9.484a1.68 1.68 0 1 1 0 3.36h-9.483z" fill="url(#e)" transform="rotate(135 31.094 26.284)"/>
            <path d="M22.655 31.586a1.68 1.68 0 1 1 0-3.36h8.419c1.316 0 2.53.289 3.572.857a6.178 6.178 0 0 1 2.486 2.485 1.68 1.68 0 0 1-2.95 1.609 2.819 2.819 0 0 0-1.145-1.144c-.531-.29-1.192-.447-1.963-.447h-8.42z" fill="url(#f)" transform="rotate(135 25.744 36.846)"/>
            <path d="M22.118 39.7a1.68 1.68 0 1 1 2.376-2.376l10.789 10.788a1.68 1.68 0 1 1-2.376 2.376L22.118 39.7z" fill="#5982F1"/>
            <path d="M21.587 32.314v-3.36l16.573-.005v3.36c-3.628 0-6.803 0-10.4.002l-3.59.002h-2.583zm0-3.36 2.581-.001 3.591-.002 10.401-.002v3.36l-16.573.005v-3.36z" fill="url(#g)" transform="rotate(45 13.59 35.058)"/>
            <path d="M21.917 9.888a1.68 1.68 0 1 1 2.376-2.376l10.675 10.675a1.68 1.68 0 0 1-2.375 2.376L21.917 9.888z" fill="#5982F1"/>
            <path d="M1.68 11.37V8.01c3.638 0 6.811.003 10.398.007l3.581.004c1.166.001 1.95.007 2.587.007v3.36c-.64 0-1.424-.006-2.59-.007l-3.581-.004c-3.587-.004-6.758-.006-10.395-.006z" fill="url(#h)" transform="rotate(45 13.59 35.058)"/>
            <path fill="url(#i)" d="m11.128 21.854-.008-3.36 17.584-.042.008 3.36z" transform="rotate(45 13.59 35.058)"/>
            <path d="M7.776 18.5v3.36a6.448 6.448 0 0 1-.405-.012 10.385 10.385 0 0 0-.456-.008c-.772 0-1.433.157-1.964.447a2.819 2.819 0 0 0-1.144 1.144c-.29.531-.447 1.192-.447 1.964 0 .77.157 1.432.447 1.963.268.492.652.876 1.144 1.144.531.29 1.192.447 1.964.447H18.57v3.36H6.915c-1.317 0-2.53-.289-3.572-.857a6.178 6.178 0 0 1-2.486-2.486C.289 27.925 0 26.711 0 25.395c0-1.317.289-2.53.857-3.572a6.178 6.178 0 0 1 2.486-2.486c1.041-.568 2.255-.857 3.572-.857a13.706 13.706 0 0 1 .743.017l.118.003z" fill="url(#j)" transform="rotate(45 13.59 35.058)"/>
            <path d="M6.915 32.31v-3.36a6166.86 6166.86 0 0 1 9.208.005l2.136.002v3.36a2354.262 2354.262 0 0 1-4.7-.004c-2.515-.003-4.428-.004-6.644-.004z" fill="url(#k)" transform="rotate(45 13.59 35.058)"/>
            <path d="M21.594 11.35V7.99a833.881 833.881 0 0 1 3.332.007l.649.001.678.002c2.495.007 4.386.01 6.565.01 1.316 0 2.53.29 3.571.858a6.178 6.178 0 0 1 2.486 2.486c.568 1.041.857 2.255.857 3.571 0 1.317-.289 2.53-.857 3.572a6.178 6.178 0 0 1-2.486 2.486c-1.041.568-2.255.857-3.571.857h-1.08v-3.36h1.08c.77 0 1.432-.157 1.963-.447a2.819 2.819 0 0 0 1.144-1.144c.29-.531.447-1.192.447-1.964 0-.77-.157-1.432-.447-1.963a2.819 2.819 0 0 0-1.144-1.144c-.531-.29-1.192-.447-1.963-.447a2184.389 2184.389 0 0 1-7.253-.013l-.65-.001a3319.696 3319.696 0 0 0-3.321-.007z" fill="url(#l)" transform="rotate(45 13.59 35.058)"/>
            <path d="m35.925 12.962 2.95-1.608c.568 1.041.857 2.255.857 3.571 0 1.317-.289 2.53-.857 3.572a6.178 6.178 0 0 1-2.486 2.486c-1.041.568-2.255.857-3.571.857-.202 0-.339 0-.486-.002l-.125-.001h-.158v-3.36h.186l.127.001.456.002c.77 0 1.432-.157 1.963-.447a2.819 2.819 0 0 0 1.144-1.144c.29-.531.447-1.192.447-1.964 0-.77-.157-1.432-.447-1.963z" fill="url(#m)" transform="rotate(45 13.59 35.058)"/>
        </g>
        <path d="M123.719 17.827h3.044l1.451 4.576 1.452-4.576h3.064l-2.399 6.652 1.452 3.85 3.588-10.523h3.609l-5.726 14.314h-2.762l-2.278-5.604-2.258 5.604h-2.782l-5.705-14.314h3.589l3.608 10.524 1.411-3.85-2.358-6.653zm19.869 14.495c-.887 0-1.684-.145-2.39-.434a5.311 5.311 0 0 1-1.793-1.18 5.054 5.054 0 0 1-1.12-1.723 5.56 5.56 0 0 1-.382-2.046c0-.766.127-1.489.383-2.167a5.255 5.255 0 0 1 1.109-1.784 5.175 5.175 0 0 1 1.784-1.21c.705-.296 1.508-.444 2.409-.444.9 0 1.7.148 2.399.444a5.27 5.27 0 0 1 1.774 1.2c.484.503.85 1.085 1.099 1.743a5.83 5.83 0 0 1 .373 2.077c0 .188-.007.373-.02.554-.014.182-.034.34-.061.474h-7.822c.054.712.312 1.253.776 1.623.464.37.991.554 1.583.554a2.9 2.9 0 0 0 1.36-.343c.437-.228.73-.537.877-.927l2.742.766c-.416.833-1.062 1.512-1.935 2.036-.874.525-1.922.787-3.145.787zm2.238-6.492c-.068-.672-.31-1.203-.726-1.593-.417-.39-.934-.584-1.552-.584-.632 0-1.153.198-1.563.595-.41.396-.648.924-.716 1.582h4.557zm8.122 6.492a4.148 4.148 0 0 1-1.461-.252 3.42 3.42 0 0 1-1.16-.706 3.384 3.384 0 0 1-.766-1.068 3.175 3.175 0 0 1-.282-1.341c0-.524.11-1.001.333-1.431.221-.43.534-.8.937-1.11.403-.308.88-.55 1.431-.725a6.05 6.05 0 0 1 1.835-.262c.444 0 .874.037 1.29.11.417.075.78.186 1.089.333v-.483c0-1.223-.706-1.835-2.117-1.835-.578 0-1.129.097-1.653.292a7.946 7.946 0 0 0-1.653.877l-.948-2.016a8.46 8.46 0 0 1 2.178-1.028 8.216 8.216 0 0 1 2.399-.343c1.599 0 2.836.377 3.71 1.13.873.752 1.31 1.854 1.31 3.306v2.721c0 .323.05.548.15.676.102.127.28.205.535.231v2.722c-.282.067-.538.11-.766.131a7.16 7.16 0 0 1-.625.03c-.605 0-1.062-.117-1.371-.353-.31-.235-.504-.567-.585-.997l-.06-.484a4.833 4.833 0 0 1-1.683 1.39 4.599 4.599 0 0 1-2.067.485zm.948-2.319c.35 0 .688-.06 1.018-.181.329-.121.601-.282.816-.484.31-.242.464-.497.464-.766v-1.008a5.224 5.224 0 0 0-.917-.252c-.33-.06-.635-.09-.918-.09-.591 0-1.078.134-1.461.402-.383.27-.575.619-.575 1.049 0 .39.148.709.444.957.295.249.672.373 1.129.373zm10.364 2.117-3.75-10.584h3.326l2.319 8.004 2.338-8.004h3.004l-3.73 10.584h-3.507zm13.287.202c-.887 0-1.683-.145-2.389-.434a5.311 5.311 0 0 1-1.794-1.18 5.054 5.054 0 0 1-1.119-1.723 5.56 5.56 0 0 1-.383-2.046c0-.766.128-1.489.383-2.167a5.255 5.255 0 0 1 1.109-1.784 5.175 5.175 0 0 1 1.784-1.21c.706-.296 1.509-.444 2.41-.444.9 0 1.7.148 2.398.444a5.27 5.27 0 0 1 1.774 1.2c.484.503.85 1.085 1.099 1.743a5.83 5.83 0 0 1 .373 2.077c0 .188-.007.373-.02.554-.014.182-.034.34-.06.474h-7.823c.054.712.313 1.253.776 1.623.464.37.992.554 1.583.554a2.9 2.9 0 0 0 1.36-.343c.438-.228.73-.537.878-.927l2.742.766c-.417.833-1.062 1.512-1.936 2.036-.873.525-1.922.787-3.145.787zm2.238-6.492c-.067-.672-.31-1.203-.726-1.593-.416-.39-.934-.584-1.552-.584-.632 0-1.153.198-1.563.595-.41.396-.648.924-.715 1.582h4.556z" fill="#233562"/>
        <path d="M68.079 22c-.04-.054-.181-.155-.423-.303a8.783 8.783 0 0 0-2.097-.887 4.746 4.746 0 0 0-1.29-.181c-1.183 0-1.774.396-1.774 1.19 0 .241.064.443.191.604.128.161.316.306.565.433.248.128.56.246.937.353.376.108.813.229 1.31.363.686.188 1.304.393 1.855.615a4.981 4.981 0 0 1 1.401.827c.383.329.68.729.887 1.2.209.47.313 1.034.313 1.693 0 .806-.151 1.488-.454 2.046a3.824 3.824 0 0 1-1.2 1.35 5.07 5.07 0 0 1-1.713.746 8.536 8.536 0 0 1-1.996.232 11.669 11.669 0 0 1-3.226-.474 12.814 12.814 0 0 1-1.521-.554 8.514 8.514 0 0 1-1.361-.746l1.451-2.883c.054.068.229.195.525.383.295.189.661.377 1.098.565.437.188.924.356 1.462.504a6.132 6.132 0 0 0 1.633.222c1.17 0 1.754-.357 1.754-1.069a.901.901 0 0 0-.262-.665 2.467 2.467 0 0 0-.726-.474 7.876 7.876 0 0 0-1.099-.393c-.423-.121-.883-.255-1.38-.403-.66-.202-1.23-.42-1.714-.655a4.527 4.527 0 0 1-1.2-.817 2.966 2.966 0 0 1-.705-1.068c-.155-.404-.232-.874-.232-1.412 0-.752.14-1.418.423-1.995a4.308 4.308 0 0 1 1.15-1.462 5.001 5.001 0 0 1 1.683-.897 6.69 6.69 0 0 1 2.026-.303c.497 0 .987.047 1.471.142.484.094.948.215 1.391.362.444.148.857.316 1.24.504.383.189.736.377 1.059.565L68.079 22zM88.36 32.12h-3.226v-5.947c0-.7-.127-1.206-.383-1.522a1.213 1.213 0 0 0-.987-.474 1.67 1.67 0 0 0-.656.141 2.224 2.224 0 0 0-.615.393 3.228 3.228 0 0 0-.887 1.34v6.069h-3.225v-5.947c0-.7-.128-1.206-.383-1.522a1.213 1.213 0 0 0-.988-.474c-.43 0-.85.171-1.26.514-.41.343-.709.796-.897 1.36v6.069h-3.226V21.536h2.903v1.774a3.838 3.838 0 0 1 1.583-1.472c.665-.336 1.441-.504 2.328-.504.444 0 .83.054 1.16.162.329.107.614.255.856.443s.437.407.585.655c.148.249.255.514.322.797a4.169 4.169 0 0 1 1.593-1.522c.659-.357 1.411-.535 2.258-.535.672 0 1.213.125 1.623.373.41.249.729.572.958.968.228.397.38.83.453 1.3.074.47.111.928.111 1.371v6.774zM93.48 32.322a4.148 4.148 0 0 1-1.461-.252 3.42 3.42 0 0 1-1.16-.706 3.384 3.384 0 0 1-.765-1.068 3.175 3.175 0 0 1-.282-1.341c0-.524.11-1.001.332-1.431.222-.43.534-.8.938-1.11.403-.308.88-.55 1.431-.725a6.05 6.05 0 0 1 1.835-.262c.443 0 .873.037 1.29.11.416.075.78.186 1.088.333v-.483c0-1.223-.705-1.835-2.116-1.835-.578 0-1.13.097-1.654.292a7.946 7.946 0 0 0-1.653.877l-.947-2.016a8.46 8.46 0 0 1 2.177-1.028 8.216 8.216 0 0 1 2.4-.343c1.599 0 2.835.377 3.709 1.13.873.752 1.31 1.854 1.31 3.306v2.721c0 .323.05.548.151.676.101.127.28.205.534.231v2.722c-.282.067-.537.11-.766.131a7.16 7.16 0 0 1-.625.03c-.604 0-1.061-.117-1.37-.353-.31-.235-.504-.567-.585-.997l-.06-.484a4.833 4.833 0 0 1-1.684 1.39 4.599 4.599 0 0 1-2.066.485zm.948-2.319c.35 0 .689-.06 1.018-.181.33-.121.602-.282.817-.484.309-.242.463-.497.463-.766v-1.008a5.224 5.224 0 0 0-.917-.252c-.33-.06-.635-.09-.917-.09-.592 0-1.079.134-1.462.402-.383.27-.574.619-.574 1.049 0 .39.148.709.443.957.296.249.672.373 1.13.373zM108.764 24.298c-.78.013-1.485.141-2.117.383-.632.242-1.089.605-1.37 1.089v6.35h-3.226V21.536h2.963v2.137c.363-.712.83-1.27 1.401-1.673.571-.404 1.18-.612 1.825-.625h.322c.067 0 .135.006.202.02v2.903zM117.449 31.556c-.444.188-.95.362-1.522.524a6.316 6.316 0 0 1-1.724.242c-.403 0-.783-.05-1.139-.152a2.541 2.541 0 0 1-.937-.483 2.26 2.26 0 0 1-.635-.877c-.155-.363-.232-.8-.232-1.31v-5.525h-1.35v-2.439h1.35v-3.367h3.225v3.367h2.158v2.44h-2.158v4.414c0 .35.088.602.263.756a.967.967 0 0 0 .665.232c.242 0 .49-.04.746-.12a4.58 4.58 0 0 0 .665-.263l.625 2.56z" fill="#5275F2"/>
        <path d="M61 39.07c.346-.198.74-.297 1.18-.297.474 0 .9.112 1.278.336.377.224.675.539.892.945.218.407.327.879.327 1.416a3.02 3.02 0 0 1-.327 1.421c-.217.416-.516.74-.897.97a2.41 2.41 0 0 1-1.272.345c-.455 0-.853-.099-1.195-.297a2.024 2.024 0 0 1-.773-.759v.97h-.874v-7.104h.874v2.822c.179-.313.441-.57.787-.768zm2.544 1.364a1.662 1.662 0 0 0-.648-.672 1.794 1.794 0 0 0-.898-.23 1.72 1.72 0 0 0-1.54.917 2.112 2.112 0 0 0-.245 1.031c0 .397.081.744.245 1.042a1.72 1.72 0 0 0 1.54.916c.327 0 .626-.078.898-.235.272-.157.488-.384.648-.681.16-.298.24-.648.24-1.052 0-.396-.08-.742-.24-1.036zm6.816-1.575-3.168 7.738h-.902l1.036-2.535-2.121-5.203h.97l1.65 4.263 1.633-4.263h.902zm6.73 5.261-1.402-2.544h-.394v2.544h-1.641v-6.74h2.755c.531 0 .984.094 1.358.28.375.185.655.44.84.762.186.324.279.684.279 1.08 0 .448-.127.848-.38 1.2-.252.352-.625.602-1.118.75l1.555 2.668H77.09zm-1.796-3.706h1.018c.3 0 .526-.073.677-.22.15-.148.225-.356.225-.624 0-.256-.075-.458-.225-.605-.15-.147-.376-.221-.677-.221h-1.018v1.67zm9.639 1.421h-3.715c.025.333.132.587.321.763.189.176.421.264.696.264.41 0 .695-.172.855-.518h1.747c-.09.352-.251.669-.485.95a2.427 2.427 0 0 1-.878.663c-.352.16-.746.24-1.181.24-.525 0-.992-.112-1.402-.336a2.39 2.39 0 0 1-.96-.96c-.23-.416-.345-.903-.345-1.46 0-.556.113-1.043.34-1.459.228-.416.546-.736.956-.96.41-.224.88-.336 1.41-.336.52 0 .98.11 1.383.327.403.217.719.528.946.931.227.403.34.874.34 1.411 0 .154-.009.314-.028.48zm-1.651-.912c0-.281-.096-.505-.288-.672a1.06 1.06 0 0 0-.72-.25c-.276 0-.508.08-.696.24-.19.16-.306.388-.35.682h2.054zm2.53-.94c.207-.417.49-.737.849-.96a2.218 2.218 0 0 1 1.2-.337c.352 0 .673.074.965.221.29.147.52.346.686.595v-2.486h1.642v7.104h-1.642v-.768c-.154.256-.373.46-.658.614-.284.154-.616.23-.993.23-.442 0-.842-.113-1.2-.34a2.355 2.355 0 0 1-.85-.97c-.208-.419-.312-.904-.312-1.454 0-.55.104-1.034.312-1.45zm3.36.489a1.107 1.107 0 0 0-.831-.355c-.327 0-.603.117-.83.35-.228.234-.341.555-.341.965 0 .41.113.734.34.974.228.24.504.36.83.36.327 0 .604-.118.831-.355.227-.237.341-.56.341-.97 0-.409-.114-.732-.34-.969zm4.286 3.475a2.16 2.16 0 0 1-.936-.71c-.234-.314-.357-.691-.37-1.133h1.747c.026.25.112.44.26.571.147.131.339.197.575.197.244 0 .436-.056.576-.168a.562.562 0 0 0 .212-.466.551.551 0 0 0-.168-.412 1.355 1.355 0 0 0-.413-.27 6.64 6.64 0 0 0-.696-.24 7.578 7.578 0 0 1-1.066-.402 1.969 1.969 0 0 1-.71-.596c-.199-.262-.298-.604-.298-1.027 0-.627.227-1.118.682-1.473.454-.356 1.046-.533 1.776-.533.742 0 1.34.177 1.795.533.454.355.698.85.73 1.483h-1.776a.695.695 0 0 0-.24-.514.845.845 0 0 0-.567-.187.706.706 0 0 0-.48.158c-.121.106-.182.258-.182.456 0 .218.102.388.307.51.205.12.525.252.96.393.435.147.789.288 1.06.422.273.135.508.33.706.586.199.256.298.585.298.989 0 .384-.098.732-.293 1.046a2.05 2.05 0 0 1-.85.749c-.37.185-.809.278-1.315.278-.492 0-.934-.08-1.324-.24zm7.776-1.219v1.392h-.836c-.595 0-1.059-.146-1.392-.437-.332-.291-.499-.766-.499-1.425v-2.132h-.653v-1.363h.653v-1.305h1.642v1.305h1.075v1.363h-1.075v2.15c0 .16.038.276.115.346.077.07.205.106.384.106h.586zm1.934 1.133a2.46 2.46 0 0 1-.989-.96c-.24-.416-.36-.903-.36-1.46 0-.55.122-1.035.365-1.454.243-.419.576-.74.998-.965a2.985 2.985 0 0 1 1.421-.336c.525 0 .999.112 1.421.336.422.224.755.546.998.965.244.42.365.904.365 1.455 0 .55-.123 1.035-.37 1.454a2.5 2.5 0 0 1-1.007.965c-.426.224-.901.336-1.426.336-.525 0-.997-.112-1.416-.336zm2.218-1.43c.22-.231.33-.56.33-.99 0-.428-.106-.758-.32-.988a1.04 1.04 0 0 0-.793-.346c-.32 0-.585.114-.797.341-.21.227-.316.558-.316.994 0 .428.104.758.312.988.208.23.468.346.782.346s.58-.115.802-.346zm7.641-3.116c.375.407.562.965.562 1.675v3.13h-1.632v-2.909c0-.358-.093-.637-.279-.835-.185-.198-.435-.298-.748-.298-.314 0-.564.1-.75.298-.185.198-.278.477-.278.835v2.909h-1.641v-5.357h1.641v.71c.167-.236.39-.423.672-.561.282-.138.599-.206.95-.206.628 0 1.129.203 1.503.61zm6.725 2.52h-3.715c.025.333.133.587.321.763.19.176.421.264.696.264.41 0 .695-.172.855-.518h1.747c-.09.352-.251.669-.485.95a2.427 2.427 0 0 1-.878.663c-.352.16-.746.24-1.181.24-.525 0-.992-.112-1.402-.336a2.39 2.39 0 0 1-.96-.96c-.23-.416-.345-.903-.345-1.46 0-.556.113-1.043.34-1.459.228-.416.546-.736.956-.96.41-.224.88-.336 1.411-.336.518 0 .98.11 1.382.327.404.217.719.528.946.931.227.403.34.874.34 1.411 0 .154-.009.314-.028.48zm-1.651-.912c0-.281-.096-.505-.288-.672a1.06 1.06 0 0 0-.72-.25c-.275 0-.507.08-.696.24-.189.16-.306.388-.35.682h2.054z" fill="#8C8C8C"/>
    </g>
</svg>
