<svg width="557" height="107" viewBox="0 0 557 107" fill="none" xmlns="http://www.w3.org/2000/svg">
<path d="M157.963 34.78H181.352L186.679 40.1076V50.5497L184.548 52.734L188.331 56.5699V66.3194L182.577 72.0732H157.963V34.78ZM177.622 50.3899L179.54 48.472V42.7182L177.676 40.8535H165.049V50.3899H177.622ZM178.901 65.9998L181.192 63.7089V58.4879L178.901 56.197H165.049V65.9998H178.901ZM193.121 66.4793V45.5418H200.154V64.2949L201.965 66.1063H206.227L211.448 60.8853V45.5418H218.481V72.0732H211.981V67.5448L207.399 72.0732H198.715L193.121 66.4793ZM224.864 45.5418H231.364V49.9637L235.786 45.5418H244.363L250.277 51.4554V72.0732H243.245V53.3734L241.433 51.5087H236.958L231.897 56.6232V72.0732H224.864V45.5418ZM255.86 66.5325V51.0825L261.348 45.5418H271.896L275.04 48.2589V34.0342H282.072V72.0732H275.466V67.971L271.364 72.0732H261.348L255.86 66.5325ZM270.724 66.1063L275.04 61.6844V54.7585L271.417 51.5087H264.917L262.893 53.5865V64.0286L264.917 66.1063H270.724ZM288.708 34.0342H295.741V72.0732H288.708V34.0342ZM302.385 45.5418H308.885V49.9637L313.147 45.5418H320.712V51.5087H314.585L309.418 56.8363V72.0732H302.385V45.5418ZM338.967 34.78H345.466L362.088 60.0861H362.195V34.78H369.174V72.0732H362.674L346.052 46.8204H345.946V72.0732H338.967V34.78ZM375.315 66.6391V51.0825L380.802 45.5418H395.773L401.314 51.0825V61.1517H382.347V64.5613L384.052 66.3194H392.736L394.335 64.6679V63.2827H401.26V66.7456L395.986 72.0732H380.696L375.315 66.6391ZM394.281 56.2503V53.1603L392.47 51.2956H384.159L382.347 53.1603V56.2503H394.281ZM409.306 66.6391V51.4554H404.511V45.5418H409.412V36.9111H416.338V45.5418H424.436V51.5087H416.338V64.3482L418.149 66.1063H424.436V72.0732H414.793L409.306 66.6391ZM426.837 45.5418H433.976L437.012 62.2705H437.225L442.02 45.5418H448.413L452.835 62.2705H453.048L456.405 45.5418H463.544L456.671 72.0732H450.118L445.217 54.1725H445.004L439.783 72.0732H433.23L426.837 45.5418ZM466.727 66.5325V51.0825L472.215 45.5418H487.451L492.939 51.0825V66.5325L487.451 72.0732H472.215L466.727 66.5325ZM484.042 66.2129L485.906 64.3482V53.2668L484.042 51.4021H475.624L473.76 53.2668V64.3482L475.624 66.2129H484.042ZM498.788 45.5418H505.288V49.9637L509.55 45.5418H517.115V51.5087H510.989L505.821 56.8363V72.0732H498.788V45.5418ZM520.588 34.0342H527.62V55.2913H532.255L539.021 45.5418H546.8L537.956 58.328L547.332 72.0732H539.554L532.096 61.2582H527.62V72.0732H520.588V34.0342Z" fill="black"/>
<path d="M87.9829 17.1963C85.4762 15.6869 82.6074 14.8846 79.6813 14.8748C79.2089 14.8748 78.723 14.8748 78.2505 14.8748C76.0804 15.0915 73.9723 15.7239 72.0412 16.7374L63.4427 21.4076L59.3932 23.5808L30.1421 39.238C27.5574 40.6137 25.3963 42.6673 23.8909 45.1786C22.3855 47.6898 21.5927 50.5637 21.5976 53.4915V67.6235L32.3963 61.8466V53.4915C32.3987 52.5199 32.6634 51.5669 33.1623 50.733C33.6612 49.8992 34.3759 49.2154 35.231 48.7538L59.3932 35.8231L63.4427 33.6635L74.2415 27.8864L77.1436 26.3343C77.5044 26.1318 77.8902 25.9775 78.291 25.8753C78.7283 25.7407 79.1833 25.6725 79.6409 25.6729C80.6209 25.6818 81.5808 25.952 82.4215 26.4557C83.2214 26.9269 83.8832 27.6003 84.3405 28.4083C84.7978 29.2162 85.0344 30.1301 85.0267 31.0584V61.4552C85.0243 62.4269 84.7597 63.3799 84.2608 64.2137C83.7619 65.0475 83.0472 65.7312 82.1921 66.1928L32.3963 92.8507V83.2809L21.5976 89.0039V101.287C21.5969 102.274 21.8524 103.245 22.3391 104.104C22.8258 104.963 23.527 105.682 24.3743 106.189C25.2216 106.696 26.186 106.975 27.1732 106.998C28.1605 107.022 29.1369 106.788 30.0071 106.321L87.2945 75.6547C89.8721 74.2845 92.0287 72.2395 93.5337 69.7384C95.0387 67.2373 95.8356 64.3742 95.839 61.4552V31.0584C95.8512 28.2636 95.1326 25.5142 93.7546 23.0827C92.3766 20.6511 90.3869 18.6219 87.9829 17.1963V17.1963Z" fill="black"/>
<path d="M63.4428 38.2532V46.6082C63.4404 47.5799 63.1757 48.5329 62.6768 49.3668C62.1779 50.2006 61.4632 50.8843 60.6081 51.3459L36.4459 64.2766L32.3964 66.4497L21.5976 72.2268L17.5481 74.3864L10.7989 78.0037V38.6446C10.8013 37.6729 11.0659 36.7199 11.5648 35.8861C12.0637 35.0522 12.7784 34.3685 13.6336 33.9069L55.4787 11.4873C56.2464 11.0585 57.1101 10.831 57.9894 10.8259C58.9695 10.8348 59.9294 11.105 60.7701 11.6087C61.57 12.08 62.2318 12.7534 62.6891 13.5613C63.1464 14.3692 63.383 15.2832 63.3753 16.2115V16.8189L70.057 13.242C71.1753 12.6464 72.3455 12.154 73.5531 11.7708C72.4477 7.80743 69.8562 4.42311 66.318 2.32244C63.9257 0.872486 61.1958 0.0735001 58.3993 0.00483352C55.6027 -0.063833 52.8368 0.600156 50.3763 1.93095L8.53114 24.3641C5.94491 25.7436 3.7839 27.8024 2.2807 30.3187C0.777492 32.835 -0.011002 35.7136 0.000115968 38.6446V86.4938C-0.000510261 87.4813 0.255 88.452 0.74169 89.3112C1.22838 90.1705 1.9296 90.8888 2.77688 91.396C3.62416 91.9033 4.58854 92.1821 5.5758 92.2053C6.56306 92.2286 7.53948 91.9953 8.40966 91.5284L17.5481 86.6423L21.5976 84.4692L32.3964 78.6921L36.4459 76.519L65.6971 60.8618C68.2827 59.4873 70.4446 57.4338 71.9502 54.9223C73.4557 52.4108 74.2479 49.5364 74.2416 46.6082V32.4762L63.4428 38.2532Z" fill="black"/>
</svg>
