<svg width="815" height="107" viewBox="0 0 815 107" fill="none" xmlns="http://www.w3.org/2000/svg">
<path d="M126.245 39.0616C126.245 25.3287 122.238 15.8624 115.158 10.2626C108.346 4.26282 97.3926 1.32959 82.9664 1.32959H1.61865V105.993H37.5506V76.6602C37.5506 76.6602 78.692 76.7935 83.5007 76.6602C98.9955 76.5269 110.884 72.7937 118.097 64.5273C123.44 58.6609 126.245 50.2612 126.245 39.0616ZM90.1795 39.5949C90.1795 42.9281 89.6452 45.328 88.5766 47.1946C86.4394 50.5278 82.0314 52.2611 74.5511 52.2611H37.2834V26.662H74.8183C81.7642 26.662 86.0387 28.262 88.3094 31.5952C89.5116 33.1951 90.1795 36.1283 90.1795 39.5949Z" fill="#222222"/>
<path d="M177.41 105.993V1.32959H140.676V105.993H177.41Z" fill="#222222"/>
<path d="M234.268 86.6599H290.904L300.121 105.993H338.725L285.829 1.32959H242.684L186.715 105.993H224.517L234.268 86.6599ZM279.551 63.194H246.023L259.247 37.9949L263.254 28.3953L266.994 37.8616L279.551 63.194Z" fill="#222222"/>
<path d="M470.955 105.993V1.32959H436.76V58.2609L386.402 1.32959H348.733V105.993H383.196V47.7279L435.157 105.993H470.955Z" fill="#222222"/>
<path d="M528.699 105.993V1.32959H491.965V105.993H528.699Z" fill="#222222"/>
<path d="M664.501 27.5953V1.32959H539.34V27.5953H583.554V105.993H620.154V27.5953H664.501Z" fill="#222222"/>
<path d="M813.722 1.32959H774.183L740.121 43.1948L706.995 1.32959H666.254L721.688 71.5937V105.993H757.62V71.4604L813.722 1.32959Z" fill="#222222"/>
</svg>
