<?xml version="1.0"?>
<svg xmlns="http://www.w3.org/2000/svg" xmlns:xlink="http://www.w3.org/1999/xlink" xmlns:svgjs="http://svgjs.com/svgjs"  version="1.1" width="512" height="512" x="0" y="0" viewBox="0 0 512.082 512.082" style="enable-background:new 0 0 512 512" xml:space="preserve" class=""><g><path xmlns="http://www.w3.org/2000/svg" d="m417.262 66.82c-81.158-81.158-207.949-88.413-297.451-21.622-3.541 2.643-4.27 7.655-1.627 11.196 2.643 3.542 7.655 4.269 11.195 1.627 36.804-27.464 80.603-41.981 126.662-41.981 116.897 0 212 95.103 212 212s-95.103 212-212 212c-166.835 0-267.22-184.259-179.998-324.06 2.339-3.749 1.196-8.683-2.553-11.022-3.747-2.338-8.683-1.196-11.021 2.553-22.522 36.099-34.428 77.778-34.428 120.53v56c0 60.901 23.716 118.157 66.779 161.22 88.923 88.92 233.169 89.269 322.441 0 43.063-43.064 66.779-100.319 66.779-161.22v-56c.001-60.901-23.715-118.157-66.778-161.221zm-19.221 374.499c-15.986 14.447-34.177 26.494-54 35.576v-38.395c19.277-8.061 37.428-18.817 54-32.06zm-284-34.88c16.572 13.243 34.723 23.999 54 32.06v38.395c-19.823-9.081-38.014-21.129-54-35.576zm70 38.053c20.449 6.78 41.953 10.64 64 11.395v39.987c-22.386-.835-43.896-5.149-64-12.43zm80 11.395c22.047-.755 43.551-4.615 64-11.395v38.952c-20.104 7.282-41.614 11.595-64 12.43zm-217.045-136.549c11.877 27.176 29.051 51.903 51.045 73.067v32.822c-26.112-29.191-44.27-65.631-51.045-105.889zm367.045 105.889v-32.822c21.976-21.147 39.158-45.868 51.045-73.067-6.775 40.258-24.933 76.698-51.045 105.889z" fill="#5982F1" data-original="#000000" style="" class=""/><path xmlns="http://www.w3.org/2000/svg" d="m99.479 81.483c6.723 0 11.996-8.844 6.395-14.423-3.129-3.118-8.196-3.109-11.313.022-6.475 6.527-1.581 14.401 4.918 14.401z" fill="#5982F1" data-original="#000000" style="" class=""/><path xmlns="http://www.w3.org/2000/svg" d="m286.861 159.491v-18.451c0-4.418-3.582-8-8-8s-8 3.582-8 8v17.103h-29.641v-17.103c0-4.418-3.582-8-8-8s-8 3.582-8 8v17.103c-4.082 0-17.018 0-21.667 0-4.418 0-8 3.582-8 8s3.582 8 8 8h12.539v111.795h-12.539c-4.418 0-8 3.582-8 8s3.582 8 8 8h21.667v17.103c0 4.418 3.582 8 8 8s8-3.582 8-8v-17.103h29.641v17.103c0 4.418 3.582 8 8 8s8-3.582 8-8v-18.451c31.964-8.522 40.479-50.4 13.673-70.549 26.768-20.121 18.348-62.012-13.673-70.55zm13.667 102.499c0 13.205-10.743 23.949-23.949 23.949h-44.486v-47.897h44.486c13.206-.001 23.949 10.742 23.949 23.948zm-68.435-39.949v-47.897h44.486c13.206 0 23.949 10.743 23.949 23.949s-10.743 23.949-23.949 23.949h-44.486z" fill="#5982F1" data-original="#000000" style="" class=""/><path xmlns="http://www.w3.org/2000/svg" d="m366.623 138.132c2.789 3.427 7.828 3.942 11.255 1.153 3.427-2.79 3.942-7.828 1.153-11.255-30.269-37.181-75.097-58.506-122.99-58.506-87.406 0-158.517 71.11-158.517 158.517s71.11 158.517 158.517 158.517c111.066 0 187.989-112.017 147.895-215.676-1.593-4.12-6.225-6.171-10.347-4.576-4.121 1.594-6.169 6.226-4.575 10.347 36.01 93.112-33.045 193.904-132.973 193.904-78.584 0-142.517-63.933-142.517-142.517s63.933-142.516 142.517-142.516c43.06 0 83.365 19.175 110.582 52.608z" fill="#5982F1" data-original="#000000" style="" class=""/></g></svg>
