<?xml version="1.0"?>
<svg xmlns="http://www.w3.org/2000/svg" xmlns:xlink="http://www.w3.org/1999/xlink" xmlns:svgjs="http://svgjs.com/svgjs" version="1.1" width="512" height="512" x="0" y="0" viewBox="0 0 511.003 511.003" style="enable-background:new 0 0 512 512" xml:space="preserve" class=""><g><path xmlns="http://www.w3.org/2000/svg" d="m451.884 252.089c5.688 0 9.832-5.1 8.251-10.441-3.07-10.374-18.874-5.329-15.921 4.699 1.025 3.484 4.213 5.742 7.67 5.742z" fill="#5982F1" data-original="#000000" style="" class=""/><path xmlns="http://www.w3.org/2000/svg" d="m510.979 202.412c-.658-23.655-28.238-38.365-50.82-45.827-27-56.546-84.332-94.19-148.169-94.19-75.53 0-141.125 51.434-159.487 124.151-68.71-31.884-148.487 16.234-152.357 91.76-3.177 62.012 46.09 112.979 107.195 112.979h107.66c4.418 0 8-3.582 8-8s-3.582-8-8-8h-107.66c-51.805 0-93.93-43.192-91.216-96.16 3.498-68.273 79.074-108.726 137.864-73.726 4.784 2.85 10.96.047 11.962-5.436 12.961-70.906 74.811-122.028 146.935-121.565 51.797.312 99.57 28.281 126.111 72.546-77.858-16.35-180.694 5.447-181.974 51.469-.034.635-.022 40.693-.022 188.451 0 53.536 137.175 74.751 214.23 42.549 25.646-10.719 39.77-25.829 39.77-42.549 0-4.017.012-187.816-.022-188.452zm-126.978-40.913c78.118 0 146.317 34.784 90.482 65.044-3.884 2.105-5.326 6.961-3.221 10.846 2.104 3.885 6.96 5.327 10.846 3.221 5.122-2.776 9.37-5.625 12.893-8.485v33.425c0 19.739-45.586 41.733-111 41.733s-111-21.994-111-41.733v-33.464c33.483 27.319 100.668 32.13 144.438 26.95 4.388-.52 7.523-4.497 7.004-8.885s-4.488-7.53-8.885-7.004c-72.143 8.534-142.557-14.156-142.557-39.913 0-19.741 45.586-41.735 111-41.735zm0 271.099c-65.414 0-111-21.995-111-41.734v-33.807c39.38 32.137 142.103 39.353 202.041 12.034 4.021-1.832 5.795-6.576 3.962-10.597-1.832-4.021-6.578-5.796-10.597-3.962-21.487 9.792-52.252 15.408-84.406 15.408-65.414 0-111-21.994-111-41.734v-33.807c47.096 38.426 174.938 38.399 222 0v96.464c0 19.74-45.586 41.735-111 41.735z" fill="#5982F1" data-original="#000000" style="" class=""/><path xmlns="http://www.w3.org/2000/svg" d="m275.64 123.102c-1.938-3.972-6.729-5.615-10.698-3.681-20.3 9.907-37.353 26.34-48.019 46.27-2.862 5.347 1.051 11.776 7.046 11.776 2.855 0 5.619-1.533 7.06-4.228 9.092-16.988 23.628-30.995 40.93-39.439 3.971-1.938 5.618-6.728 3.681-10.698z" fill="#5982F1" data-original="#000000" style="" class=""/><path xmlns="http://www.w3.org/2000/svg" d="m86.624 235.614c-12.047 6.064-21.955 16.073-27.896 28.181-1.947 3.967-.309 8.76 3.657 10.706 3.975 1.951 8.764.3 10.706-3.657 4.415-8.996 11.776-16.432 20.727-20.938 3.946-1.986 5.535-6.797 3.548-10.743-1.986-3.946-6.795-5.537-10.742-3.549z" fill="#5982F1" data-original="#000000" style="" class=""/></g></svg>
