<?xml version="1.0"?>
<svg xmlns="http://www.w3.org/2000/svg" xmlns:xlink="http://www.w3.org/1999/xlink" xmlns:svgjs="http://svgjs.com/svgjs" version="1.1" width="512" height="512" x="0" y="0" viewBox="0 0 512.079 512.079" style="enable-background:new 0 0 512 512" xml:space="preserve" class=""><g><path xmlns="http://www.w3.org/2000/svg" d="m324.926 217.355c-.263-.63-61.696-104.755-62.961-106.005-3.131-3.101-8.174-3.04-11.243 0-1.262 1.247-62.694 105.364-62.964 106.011-.761 1.818-.854 3.925-.102 5.908 1.818 4.803 1.074 3.301 65.85 27.87 1.07.406 2.32.604 3.603.481 1.795-.171 63.872-23.948 64.068-24.047 3.762-1.919 5.357-6.381 3.749-10.218zm-76.583 14.713-41.484-15.735 41.484-70.076zm16-85.811 41.483 70.076-41.483 15.735z" fill="#5982F1" data-original="#000000" style="" class=""/><path xmlns="http://www.w3.org/2000/svg" d="m188.688 250.64 61.212 83.142c3.195 4.339 9.69 4.339 12.885 0l61.212-83.142c4.712-6.401-1.844-15.044-9.28-12.223l-58.375 22.142-58.375-22.142c-7.432-2.816-13.994 5.818-9.279 12.223zm64.818 25.955c3.808 1.444 2.066 1.369 41.526-13.599l-38.688 52.549-38.688-52.549z" fill="#5982F1" data-original="#000000" style="" class=""/><path xmlns="http://www.w3.org/2000/svg" d="m417.26 66.818c-81.219-81.219-208.022-88.358-297.451-21.622-3.541 2.643-4.27 7.655-1.627 11.196 2.642 3.541 7.654 4.269 11.196 1.627 36.803-27.464 80.602-41.98 126.661-41.98 116.897 0 212 95.103 212 212s-95.103 212-212 212c-166.835 0-267.223-184.262-179.998-324.06 2.339-3.749 1.196-8.683-2.552-11.022-3.75-2.341-8.684-1.197-11.022 2.552-22.523 36.098-34.428 77.776-34.428 120.53v56c0 60.901 23.716 118.157 66.78 161.22 88.922 88.922 233.174 89.266 322.44 0 43.063-43.063 66.78-100.319 66.78-161.22v-56c.001-60.901-23.716-118.157-66.779-161.221zm-19.22 374.498c-15.986 14.447-34.177 26.494-54 35.575v-38.395c19.277-8.062 37.428-18.817 54-32.061zm-284-34.88c16.572 13.243 34.723 23.999 54 32.061v38.395c-19.823-9.082-38.014-21.129-54-35.575zm70 38.054c20.449 6.78 41.953 10.64 64 11.395v39.988c-22.386-.835-43.896-5.149-64-12.43zm80 11.395c22.047-.755 43.551-4.615 64-11.395v38.952c-20.104 7.281-41.614 11.595-64 12.43zm-217.046-136.551c11.897 27.223 29.091 51.944 51.046 73.068v32.823c-26.113-29.191-44.27-65.632-51.046-105.891zm367.046 105.891v-32.823c21.93-21.101 39.134-45.814 51.046-73.068-6.776 40.259-24.934 76.7-51.046 105.891z" fill="#5982F1" data-original="#000000" style="" class=""/><path xmlns="http://www.w3.org/2000/svg" d="m99.477 81.48c6.739 0 11.985-8.844 6.401-14.417-3.127-3.122-8.194-3.116-11.313.011l-.777.783c-4.987 5.044-1.373 13.623 5.689 13.623z" fill="#5982F1" data-original="#000000" style="" class=""/><path xmlns="http://www.w3.org/2000/svg" d="m366.622 138.129c2.789 3.426 7.828 3.942 11.255 1.153 3.426-2.79 3.943-7.829 1.153-11.255-30.27-37.181-75.098-58.506-122.99-58.506-87.406 0-158.517 71.11-158.517 158.517s71.11 158.517 158.517 158.517c111.066 0 187.987-112.015 147.896-215.676-1.594-4.121-6.225-6.169-10.347-4.576-4.121 1.594-6.169 6.226-4.576 10.347 36.01 93.11-33.043 193.904-132.973 193.904-78.584 0-142.517-63.933-142.517-142.517s63.933-142.515 142.517-142.515c43.059 0 83.364 19.175 110.582 52.607z" fill="#5982F1" data-original="#000000" style="" class=""/></g></svg>
