<?xml version="1.0"?>
<svg xmlns="http://www.w3.org/2000/svg" xmlns:xlink="http://www.w3.org/1999/xlink" xmlns:svgjs="http://svgjs.com/svgjs" version="1.1" width="512" height="512" x="0" y="0" viewBox="0 0 512 512" style="enable-background:new 0 0 512 512" xml:space="preserve" class=""><g><path xmlns="http://www.w3.org/2000/svg" d="m256 137.816406c-5.519531 0-10 4.476563-10 10 0 5.519532 4.480469 10 10 10s10-4.480468 10-10c0-5.523437-4.480469-10-10-10zm0 0" fill="#42113C" data-original="#000000" style="" class=""/><path xmlns="http://www.w3.org/2000/svg" d="m482 197.816406h-38.910156c-20.511719-58.570312-50.273438-161.269531-104.1875-190.335937-26.964844-14.519531-52.453125-4.378907-62.039063 16.222656-4.078125 8.757813-12.222656 13.363281-20.863281 13.363281-8.757812 0-16.835938-4.707031-20.863281-13.355468-9.246094-19.898438-34.125-30.96875-60.144531-18.339844-54.777344 26.601562-85.410157 133.433594-106.082032 192.445312h-38.910156c-16.574219 0-30 13.421875-30 30 0 16.539063 13.457031 30 30 30h452c16.574219 0 30-13.425781 30-30 0-16.542968-13.457031-30-30-30zm-377.960938-40h111.960938c5.523438 0 10-4.480468 10-10 0-5.523437-4.476562-10-10-10h-104.96875c30.144531-83.269531 58.304688-107.464844 72.695312-114.453125 15.699219-7.617187 28.621094-1.242187 33.277344 8.78125 7.335938 15.757813 22.511719 24.921875 38.996094 24.921875 16.523438 0 31.679688-9.199218 38.996094-24.921875 4.792968-10.308593 17.78125-16.015625 34.417968-7.058593 14.457032 7.796874 42.53125 32.796874 71.550782 112.730468h-104.964844c-5.523438 0-10 4.476563-10 10 0 5.523438 4.476562 10 10 10h111.964844c5.054687 14.578125 10.304687 29.621094 13.9375 40h-331.800782c3.621094-10.351562 8.859376-25.359375 13.9375-40zm377.960938 80h-452c-5.515625 0-10-4.488281-10-10 0-5.523437 4.476562-10 10-10h452c5.515625 0 10 4.484375 10 10 0 5.519532-4.480469 10-10 10zm0 0" fill="#42113C" data-original="#000000" style="" class=""/><path xmlns="http://www.w3.org/2000/svg" d="m236 297.816406h-160c-5.523438 0-10 4.476563-10 10v40c0 49.625 40.375 90 90 90 37.601562 0 70.882812-23.128906 84.121094-57.972656 10.054687-4.585938 21.703125-4.585938 31.757812 0 13.238282 34.84375 46.519532 57.96875 84.121094 57.96875 49.625 0 90-40.371094 90-90v-40c0-5.523438-4.476562-10-10-10h-160c-5.523438 0-10 4.476562-10 10v10h-20v-10c0-5.519531-4.476562-9.996094-10-9.996094zm-80 120c-38.597656 0-70-31.402344-70-70v-30h140v30c0 38.699219-31.234375 70-70 70zm130-100h140v30c0 38.597656-31.402344 70-70 70-38.863281 0-70-31.394531-70-70zm-20 20v10c0 3.195313.183594 6.378906.515625 9.539063-6.949219-1.269531-14.082031-1.269531-21.03125 0 .332031-3.160157.515625-6.34375.515625-9.539063v-10zm0 0" fill="#42113C" data-original="#000000" style="" class=""/><path xmlns="http://www.w3.org/2000/svg" d="m156 377.816406c-16.542969 0-30-13.460937-30-30 0-5.523437-4.476562-10-10-10s-10 4.476563-10 10c0 27.566406 22.429688 50 50 50 5.523438 0 10-4.480468 10-10 0-5.523437-4.476562-10-10-10zm0 0" fill="#42113C" data-original="#000000" style="" class=""/><path xmlns="http://www.w3.org/2000/svg" d="m356 397.816406c27.570312 0 50-22.433594 50-50 0-5.523437-4.476562-10-10-10s-10 4.476563-10 10c0 16.539063-13.457031 30-30 30-5.523438 0-10 4.476563-10 10 0 5.519532 4.476562 10 10 10zm0 0" fill="#42113C" data-original="#000000" style="" class=""/></g></svg>
