<?xml version="1.0"?>
<svg xmlns="http://www.w3.org/2000/svg" xmlns:xlink="http://www.w3.org/1999/xlink" xmlns:svgjs="http://svgjs.com/svgjs" version="1.1" width="512" height="512" x="0" y="0" viewBox="0 0 368 368" style="enable-background:new 0 0 512 512" xml:space="preserve" class=""><g>
<g xmlns="http://www.w3.org/2000/svg">
	<g>
		<path d="M268.2,129.192c-2.368-1.464-5.304-1.592-7.784-0.352L208,155.056V136c0-4.416-3.576-8-8-8h-96c-4.424,0-8,3.584-8,8v96    c0,4.416,3.576,8,8,8h96c4.424,0,8-3.584,8-8v-19.056l52.424,26.208C261.552,239.72,262.776,240,264,240    c1.464,0,2.92-0.4,4.2-1.192c2.36-1.464,3.8-4.032,3.8-6.808v-96C272,133.224,270.56,130.656,268.2,129.192z M192,168v32v24h-80    v-80h80V168z M256,219.056l-48-24v-22.112l48-24V219.056z" fill="#5982F1" data-original="#000000" style=""/>
	</g>
</g>
<g xmlns="http://www.w3.org/2000/svg">
	<g>
		<path d="M308,96c-6.616,0-12,5.384-12,12c0,6.616,5.384,12,12,12c6.616,0,12-5.384,12-12C320,101.384,314.616,96,308,96z" fill="#5982F1" data-original="#000000" style=""/>
	</g>
</g>
<g xmlns="http://www.w3.org/2000/svg">
	<g>
		<path d="M343.992,0H24C10.768,0,0,10.768,0,24v320c0,13.232,10.768,24,24,24h319.992C357.224,368,368,357.232,368,344V24    C368,10.768,357.224,0,343.992,0z M352,48h-72c-4.424,0-8,3.584-8,8s3.576,8,8,8h72v240H152c-4.424,0-8,3.584-8,8    c0,4.416,3.576,8,8,8h200v24c0,4.408-3.592,8-8.008,8H24c-4.416,0-8-3.592-8-8v-24h72c4.424,0,8-3.584,8-8c0-4.416-3.576-8-8-8H16    V64h200c4.424,0,8-3.584,8-8s-3.576-8-8-8H16V24c0-4.408,3.584-8,8-8h319.992c4.416,0,8.008,3.592,8.008,8V48z" fill="#5982F1" data-original="#000000" style=""/>
	</g>
</g>
<g xmlns="http://www.w3.org/2000/svg">
</g>
<g xmlns="http://www.w3.org/2000/svg">
</g>
<g xmlns="http://www.w3.org/2000/svg">
</g>
<g xmlns="http://www.w3.org/2000/svg">
</g>
<g xmlns="http://www.w3.org/2000/svg">
</g>
<g xmlns="http://www.w3.org/2000/svg">
</g>
<g xmlns="http://www.w3.org/2000/svg">
</g>
<g xmlns="http://www.w3.org/2000/svg">
</g>
<g xmlns="http://www.w3.org/2000/svg">
</g>
<g xmlns="http://www.w3.org/2000/svg">
</g>
<g xmlns="http://www.w3.org/2000/svg">
</g>
<g xmlns="http://www.w3.org/2000/svg">
</g>
<g xmlns="http://www.w3.org/2000/svg">
</g>
<g xmlns="http://www.w3.org/2000/svg">
</g>
<g xmlns="http://www.w3.org/2000/svg">
</g>
</g></svg>
