<svg id="Flat" enable-background="new 0 0 64 64" height="512" viewBox="0 0 64 64" width="512" xmlns="http://www.w3.org/2000/svg"><g id="Color"><g><path d="m37 14h-10c-.315 0-.611-.148-.8-.4l-5.7-7.6h-13.5c-.552 0-1-.448-1-1s.448-1 1-1h14c.315 0 .611.148.8.4l5.7 7.6h9l5.7-7.6c.189-.252.486-.4.8-.4h14c.553 0 1 .448 1 1s-.447 1-1 1h-13.5l-5.7 7.6c-.189.252-.486.4-.8.4z" fill="#fdc741"/><path d="m43 22h-22c-.292 0-.569-.127-.759-.349l-5.701-6.651h-3.54c-.552 0-1-.448-1-1s.448-1 1-1h4c.292 0 .569.127.759.349l5.701 6.651h21.08l5.701-6.651c.19-.222.467-.349.759-.349h4c.553 0 1 .448 1 1s-.447 1-1 1h-3.54l-5.701 6.651c-.19.222-.467.349-.759.349z" fill="#fdc741"/><path d="m43 33h-22c-.315 0-.611-.148-.8-.4l-5.7-7.6h-7.5c-.552 0-1-.448-1-1s.448-1 1-1h8c.315 0 .611.148.8.4l5.7 7.6h21l5.7-7.6c.188-.252.485-.4.8-.4h8c.553 0 1 .448 1 1s-.447 1-1 1h-7.5l-5.7 7.6c-.189.252-.486.4-.8.4z" fill="#fdc741"/><path d="m57 60h-14c-.314 0-.611-.148-.8-.4l-5.7-7.6h-9l-5.7 7.6c-.189.252-.485.4-.8.4h-14c-.552 0-1-.448-1-1s.448-1 1-1h13.5l5.7-7.6c.188-.252.485-.4.8-.4h10c.314 0 .611.148.8.4l5.7 7.6h13.5c.553 0 1 .448 1 1s-.447 1-1 1z" fill="#fdc741"/><path d="m53 51h-4c-.292 0-.569-.127-.759-.349l-5.701-6.651h-21.08l-5.701 6.651c-.19.222-.467.349-.759.349h-4c-.552 0-1-.448-1-1s.448-1 1-1h3.54l5.701-6.651c.19-.222.467-.349.759-.349h22c.292 0 .569.127.759.349l5.701 6.651h3.54c.553 0 1 .448 1 1s-.447 1-1 1z" fill="#fdc741"/><path d="m57 41h-8c-.314 0-.611-.148-.8-.4l-5.7-7.6h-21l-5.7 7.6c-.189.252-.485.4-.8.4h-8c-.552 0-1-.448-1-1s.448-1 1-1h7.5l5.7-7.6c.188-.252.485-.4.8-.4h22c.314 0 .611.148.8.4l5.7 7.6h7.5c.553 0 1 .448 1 1s-.447 1-1 1z" fill="#fdc741"/><g><circle cx="59" cy="5" fill="#fffa48" r="2"/></g><g><circle cx="55" cy="14" fill="#fffa48" r="2"/></g><g><circle cx="59" cy="24" fill="#fffa48" r="2"/></g><g><circle cx="5" cy="5" fill="#fffa48" r="2"/></g><g><circle cx="9" cy="14" fill="#fffa48" r="2"/></g><g><circle cx="5" cy="24" fill="#fffa48" r="2"/></g><g><circle cx="5" cy="59" fill="#fffa48" r="2"/></g><g><circle cx="9" cy="50" fill="#fffa48" r="2"/></g><g><circle cx="5" cy="40" fill="#fffa48" r="2"/></g><g><circle cx="59" cy="59" fill="#fffa48" r="2"/></g><g><circle cx="55" cy="50" fill="#fffa48" r="2"/></g><g><circle cx="59" cy="40" fill="#fffa48" r="2"/></g><g fill="#fdc741"><circle cx="59" cy="5" r="1"/><circle cx="55" cy="14" r="1"/><circle cx="59" cy="24" r="1"/><circle cx="59" cy="40" r="1"/><circle cx="55" cy="50" r="1"/><circle cx="59" cy="59" r="1"/><circle cx="5" cy="59" r="1"/><circle cx="9" cy="50" r="1"/><circle cx="5" cy="40" r="1"/><circle cx="5" cy="24" r="1"/><circle cx="9" cy="14" r="1"/><circle cx="5" cy="5" r="1"/></g><path d="m46 32c0 .55-.45 1-1 1-.1 0-.19-.01-.28-.04-.09-.58-.23-1.14-.39-1.7.18-.16.41-.26.67-.26.55 0 1 .45 1 1z" fill="#fcea42"/><g><g><circle id="XMLID_307_" cx="32" cy="32" fill="#fffa48" r="21"/><path d="m51.53 39.71c-3.06 7.78-10.65 13.29-19.53 13.29-11.6 0-21-9.4-21-21 0-8.17 4.66-15.25 11.47-18.71-.95 2.39-1.47 4.99-1.47 7.71 0 11.6 9.4 21 21 21 3.43 0 6.67-.82 9.53-2.29z" fill="#fcea42"/><circle cx="32" cy="32" fill="#fdc741" r="17"/></g><path d="m42 42c-11.6 0-21-9.4-21-21 0-.688.034-1.368.099-2.039-3.726 3.119-6.099 7.8-6.099 13.039 0 9.389 7.611 17 17 17 5.821 0 10.954-2.929 14.018-7.39-1.301.253-2.643.39-4.018.39z" fill="#efad1b"/><g fill="#fffa48"><circle cx="19" cy="32" r="1"/><circle cx="45" cy="32" r="1"/><path d="m27 37c.076 0 .153-.009.23-.026.451-.108.77-.51.77-.974v-8c0-.553-.448-1-1-1s-1 .447-1 1v3.764l-2.105-4.211c-.208-.415-.67-.628-1.125-.526-.451.107-.77.509-.77.973v8c0 .553.448 1 1 1s1-.447 1-1v-3.764l2.105 4.211c.173.345.522.553.895.553z"/><path d="m35 29c.552 0 1-.447 1-1s-.448-1-1-1h-4c-.552 0-1 .447-1 1v8c0 .553.448 1 1 1s1-.447 1-1v-3h2c.552 0 1-.447 1-1s-.448-1-1-1h-2v-2z"/><path d="m43 27h-4c-.552 0-1 .447-1 1s.448 1 1 1h1v7c0 .553.448 1 1 1s1-.447 1-1v-7h1c.552 0 1-.447 1-1s-.448-1-1-1z"/><path d="m26.555 24.832 5.445-3.63 5.445 3.63c.171.113.364.168.554.168.323 0 .64-.156.833-.445.306-.46.182-1.08-.277-1.387l-6-4c-.336-.225-.773-.225-1.109 0l-6 4c-.459.307-.583.927-.277 1.387.305.459.925.582 1.386.277z"/><path d="m37.445 39.168-5.445 3.63-5.445-3.63c-.461-.307-1.081-.182-1.387.277-.306.46-.182 1.08.277 1.387l6 4c.168.112.362.168.555.168s.387-.056.555-.168l6-4c.459-.307.583-.927.277-1.387-.307-.459-.928-.584-1.387-.277z"/></g><g fill="#fcea42"><circle cx="19" cy="32" r="1"/><path d="m27.85 36.52c-.13.22-.35.39-.62.45-.08.02-.15.03-.23.03-.37 0-.72-.21-.89-.55l-2.11-4.21v3.76c0 .55-.45 1-1 1s-1-.45-1-1v-8c0-.13.02-.25.07-.36 1.15 3.44 3.16 6.49 5.78 8.88z"/><path d="m37.52 41.51-4.97 3.32c-.16.11-.36.17-.55.17s-.39-.06-.55-.17l-6-4c-.46-.3-.59-.92-.28-1.38.3-.46.92-.59 1.38-.28l5.45 3.63 3-2c.82.29 1.66.53 2.52.71z"/></g></g></g></g></svg>