<?xml version="1.0"?>
<svg xmlns="http://www.w3.org/2000/svg" xmlns:xlink="http://www.w3.org/1999/xlink" xmlns:svgjs="http://svgjs.com/svgjs" version="1.1" width="512" height="512" x="0" y="0" viewBox="0 0 64 64" style="enable-background:new 0 0 512 512" xml:space="preserve" class=""><g><g xmlns="http://www.w3.org/2000/svg"><path d="m59 27c1.654 0 3-1.346 3-3s-1.346-3-3-3c-1.302 0-2.402.839-2.816 2h-4.129c-1.022-2.266-2.426-4.357-4.159-6.175l1.564-1.825h2.724c.414 1.161 1.514 2 2.816 2 1.654 0 3-1.346 3-3s-1.346-3-3-3c-1.302 0-2.402.839-2.816 2h-3.184c-.292 0-.569.127-.76.35l-1.793 2.093c-.539-.472-1.097-.925-1.686-1.346-.448-.321-1.073-.217-1.395.232-.321.449-.218 1.074.232 1.395 5.261 3.76 8.402 9.845 8.402 16.276 0 6.454-3.141 12.542-8.4 16.285-.45.32-.555.945-.234 1.395.194.274.503.42.815.42.2 0 .403-.06.579-.185.592-.421 1.153-.876 1.695-1.349l1.786 2.084c.19.223.467.35.759.35h3.184c.414 1.161 1.514 2 2.816 2 1.654 0 3-1.346 3-3s-1.346-3-3-3c-1.302 0-2.402.839-2.816 2h-2.724l-1.555-1.816c1.734-1.818 3.14-3.912 4.16-6.184h4.119c.414 1.161 1.514 2 2.816 2 1.654 0 3-1.346 3-3s-1.346-3-3-3c-1.302 0-2.402.839-2.816 2h-3.342c.751-2.231 1.158-4.591 1.158-7 0-2.407-.409-4.767-1.164-7h3.349c.413 1.161 1.513 2 2.815 2zm-4-14c.552 0 1 .449 1 1s-.448 1-1 1-1-.449-1-1 .448-1 1-1zm0 36c.552 0 1 .449 1 1s-.448 1-1 1-1-.449-1-1 .448-1 1-1zm4-10c.552 0 1 .449 1 1s-.448 1-1 1-1-.449-1-1 .448-1 1-1zm0-16c.552 0 1 .449 1 1s-.448 1-1 1-1-.449-1-1 .448-1 1-1z" fill="#5982F1" data-original="#000000" style="" class=""/><path d="m59 56c-1.302 0-2.402.839-2.816 2h-12.684l-3.997-5.322c.549-.199 1.094-.414 1.631-.658.503-.229.725-.821.496-1.324-.229-.502-.82-.726-1.324-.496-2.627 1.194-5.421 1.8-8.306 1.8-11.028 0-20-8.972-20-20s8.972-20 20-20c2.881 0 5.671.612 8.292 1.818.501.233 1.097.011 1.326-.49.231-.501.012-1.095-.49-1.326-.538-.248-1.084-.465-1.635-.667l4.007-5.335h12.684c.414 1.161 1.514 2 2.816 2 1.654 0 3-1.346 3-3s-1.346-3-3-3c-1.302 0-2.402.839-2.816 2h-13.184c-.314 0-.61.148-.8.399l-4.732 6.301c-1.777-.461-3.604-.7-5.468-.7-1.89 0-3.724.24-5.475.69l-4.725-6.291c-.189-.251-.486-.399-.8-.399h-13.184c-.414-1.161-1.514-2-2.816-2-1.654 0-3 1.346-3 3s1.346 3 3 3c1.302 0 2.402-.839 2.816-2h12.684l3.995 5.319c-2.575.937-4.924 2.346-6.949 4.116l-1.787-2.086c-.19-.222-.467-.349-.759-.349h-3.184c-.414-1.161-1.514-2-2.816-2-1.654 0-3 1.346-3 3s1.346 3 3 3c1.302 0 2.402-.839 2.816-2h2.724l1.559 1.82c-1.717 1.798-3.133 3.884-4.166 6.18h-4.117c-.414-1.161-1.514-2-2.816-2-1.654 0-3 1.346-3 3s1.346 3 3 3c1.302 0 2.402-.839 2.816-2h3.333c-.741 2.201-1.149 4.553-1.149 7s.408 4.799 1.148 7h-3.332c-.414-1.161-1.514-2-2.816-2-1.654 0-3 1.346-3 3s1.346 3 3 3c1.302 0 2.402-.839 2.816-2h4.117c1.034 2.296 2.449 4.382 4.166 6.18l-1.559 1.82h-2.724c-.414-1.161-1.514-2-2.816-2-1.654 0-3 1.346-3 3s1.346 3 3 3c1.302 0 2.402-.839 2.816-2h3.184c.292 0 .569-.127.759-.35l1.787-2.086c2.026 1.77 4.374 3.179 6.949 4.116l-3.995 5.32h-12.684c-.414-1.161-1.514-2-2.816-2-1.654 0-3 1.346-3 3s1.346 3 3 3c1.302 0 2.402-.839 2.816-2h13.184c.314 0 .611-.148.8-.399l4.725-6.291c1.751.45 3.585.69 5.475.69 1.865 0 3.694-.237 5.473-.693l4.727 6.294c.19.251.486.399.8.399h13.184c.414 1.161 1.514 2 2.816 2 1.654 0 3-1.346 3-3s-1.346-3-3-3zm0-52c.552 0 1 .449 1 1s-.448 1-1 1-1-.449-1-1 .448-1 1-1zm-54 2c-.551 0-1-.449-1-1s.449-1 1-1 1 .449 1 1-.449 1-1 1zm4 9c-.551 0-1-.449-1-1s.449-1 1-1 1 .449 1 1-.449 1-1 1zm-4 10c-.551 0-1-.449-1-1s.449-1 1-1 1 .449 1 1-.449 1-1 1zm0 16c-.551 0-1-.449-1-1s.449-1 1-1 1 .449 1 1-.449 1-1 1zm4 10c-.551 0-1-.449-1-1s.449-1 1-1 1 .449 1 1-.449 1-1 1zm-4 9c-.551 0-1-.449-1-1s.449-1 1-1 1 .449 1 1-.449 1-1 1zm54 0c-.552 0-1-.449-1-1s.448-1 1-1 1 .449 1 1-.448 1-1 1z" fill="#5982F1" data-original="#000000" style="" class=""/><circle cx="19" cy="32" r="1" fill="#5982F1" data-original="#000000" style="" class=""/><circle cx="45" cy="32" r="1" fill="#5982F1" data-original="#000000" style="" class=""/><path d="m20.701 44.723c-.342.434-.268 1.062.166 1.405 3.211 2.533 7.061 3.872 11.133 3.872 9.925 0 18-8.075 18-18s-8.075-18-18-18-18 8.075-18 18c0 4.072 1.339 7.922 3.873 11.133.343.435.972.508 1.405.166.434-.342.507-.971.166-1.405-2.254-2.854-3.444-6.276-3.444-9.894 0-8.822 7.178-16 16-16s16 7.178 16 16-7.178 16-16 16c-3.618 0-7.04-1.19-9.894-3.443-.434-.341-1.063-.268-1.405.166z" fill="#5982F1" data-original="#000000" style="" class=""/><path d="m22.77 27.027c-.451.106-.77.509-.77.973v8c0 .552.448 1 1 1s1-.448 1-1v-3.764l2.105 4.211c.173.345.522.553.895.553.076 0 .153-.009.23-.027.451-.106.77-.509.77-.973v-8c0-.552-.448-1-1-1s-1 .448-1 1v3.764l-2.105-4.211c-.208-.415-.668-.632-1.125-.526z" fill="#5982F1" data-original="#000000" style="" class=""/><path d="m35 29c.553 0 1-.448 1-1s-.447-1-1-1h-4c-.552 0-1 .448-1 1v8c0 .552.448 1 1 1s1-.448 1-1v-3h2c.553 0 1-.448 1-1s-.447-1-1-1h-2v-2z" fill="#5982F1" data-original="#000000" style="" class=""/><path d="m43 27h-4c-.553 0-1 .448-1 1s.447 1 1 1h1v7c0 .552.447 1 1 1s1-.448 1-1v-7h1c.553 0 1-.448 1-1s-.447-1-1-1z" fill="#5982F1" data-original="#000000" style="" class=""/><path d="m32.555 19.168c-.336-.224-.773-.224-1.109 0l-6 4c-.459.306-.583.927-.277 1.387.306.459.926.583 1.387.277l5.444-3.63 5.445 3.63c.171.114.364.168.554.168.323 0 .641-.156.833-.445.307-.459.183-1.081-.277-1.387z" fill="#5982F1" data-original="#000000" style="" class=""/><path d="m25.168 39.445c-.306.459-.182 1.081.277 1.387l6 4c.168.112.362.168.555.168s.387-.056.555-.168l6-4c.46-.306.584-.927.277-1.387-.306-.459-.927-.585-1.387-.277l-5.445 3.63-5.445-3.63c-.461-.308-1.081-.182-1.387.277z" fill="#5982F1" data-original="#000000" style="" class=""/></g></g></svg>
