<?xml version="1.0"?>
<svg xmlns="http://www.w3.org/2000/svg" xmlns:xlink="http://www.w3.org/1999/xlink" xmlns:svgjs="http://svgjs.com/svgjs" version="1.1" width="512" height="512" x="0" y="0" viewBox="0 0 74 74" style="enable-background:new 0 0 512 512" xml:space="preserve" class=""><g><path xmlns="http://www.w3.org/2000/svg" d="m71 39.53a1 1 0 0 1 -1-1v-2.97a1 1 0 0 1 2 0v2.97a1 1 0 0 1 -1 1z" fill="#5982F1" data-original="#000000" style="" class=""/><path xmlns="http://www.w3.org/2000/svg" d="m71 63.83h-.031l-34-1.06-33.938 1.06a1.01 1.01 0 0 1 -.727-.282 1 1 0 0 1 -.304-.718v-44.62a1 1 0 0 1 1-1h6.38a1 1 0 1 1 0 2h-5.38v42.59l32.969-1.027 33.031 1.027v-6.36a1 1 0 0 1 2 0v7.39a1 1 0 0 1 -1 1z" fill="#5982F1" data-original="#000000" style="" class=""/><path xmlns="http://www.w3.org/2000/svg" d="m71 49.44a1 1 0 0 1 -1-1v-2.91a1 1 0 0 1 2 0v2.91a1 1 0 0 1 -1 1z" fill="#5982F1" data-original="#000000" style="" class=""/><path xmlns="http://www.w3.org/2000/svg" d="m71 29.56a1 1 0 0 1 -1-1v-9.35h-5.38a1 1 0 0 1 0-2h6.38a1 1 0 0 1 1 1v10.35a1 1 0 0 1 -1 1z" fill="#5982F1" data-original="#000000" style="" class=""/><path xmlns="http://www.w3.org/2000/svg" d="m37 62.769a1 1 0 0 1 -1-1v-45.577a1 1 0 0 1 .487-.859c8.393-5.007 17.932-6.374 28.355-4.063a1 1 0 0 1 .783.976v44.514a1 1 0 0 1 -1.232.973c-8.859-2.119-17.4-.561-26.894 4.9a1 1 0 0 1 -.499.136zm1-46v43.3c8.938-4.818 17.15-6.278 25.625-4.552v-42.462c-9.525-1.955-17.918-.736-25.625 3.71z" fill="#5982F1" data-original="#000000" style="" class=""/><path xmlns="http://www.w3.org/2000/svg" d="m37 62.769a1 1 0 0 1 -.5-.133c-9.49-5.464-18.036-7.021-26.894-4.9a1 1 0 0 1 -1.232-.973v-44.517a1 1 0 0 1 .783-.976c10.426-2.313 19.964-.945 28.355 4.063a1 1 0 0 1 .487.859v45.577a1 1 0 0 1 -1 1zm-19.825-7.952c6.144 0 12.291 1.727 18.825 5.25v-43.3c-7.707-4.446-16.1-5.661-25.625-3.71v42.46a33.964 33.964 0 0 1 6.8-.7z" fill="#5982F1" data-original="#000000" style="" class=""/><path xmlns="http://www.w3.org/2000/svg" d="m42.668 25.684a1 1 0 0 1 -.441-1.9 30.026 30.026 0 0 1 16.372-3.1 1 1 0 0 1 -.2 1.991 28.041 28.041 0 0 0 -15.294 2.9 1 1 0 0 1 -.437.109z" fill="#5982F1" data-original="#000000" style="" class=""/><path xmlns="http://www.w3.org/2000/svg" d="m42.668 33.254a1 1 0 0 1 -.441-1.9 30.028 30.028 0 0 1 16.372-3.1 1 1 0 1 1 -.2 1.99 28.03 28.03 0 0 0 -15.294 2.9 1 1 0 0 1 -.437.11z" fill="#5982F1" data-original="#000000" style="" class=""/><path xmlns="http://www.w3.org/2000/svg" d="m42.668 40.824a1 1 0 0 1 -.441-1.9 30.037 30.037 0 0 1 16.372-3.1 1 1 0 1 1 -.2 1.99 28.03 28.03 0 0 0 -15.294 2.9.986.986 0 0 1 -.437.11z" fill="#5982F1" data-original="#000000" style="" class=""/><path xmlns="http://www.w3.org/2000/svg" d="m42.668 49.394a1 1 0 0 1 -.441-1.9 30.034 30.034 0 0 1 16.373-3.094 1 1 0 1 1 -.2 1.99 28.06 28.06 0 0 0 -15.294 2.9 1 1 0 0 1 -.438.104z" fill="#5982F1" data-original="#000000" style="" class=""/><path xmlns="http://www.w3.org/2000/svg" d="m31.332 25.684a1 1 0 0 1 -.439-.1 28.056 28.056 0 0 0 -15.294-2.9 1 1 0 0 1 -.2-1.991 30.026 30.026 0 0 1 16.372 3.1 1 1 0 0 1 -.441 1.9z" fill="#5982F1" data-original="#000000" style="" class=""/><path xmlns="http://www.w3.org/2000/svg" d="m31.332 33.254a1 1 0 0 1 -.439-.1 28.031 28.031 0 0 0 -15.294-2.9 1 1 0 1 1 -.2-1.99 29.994 29.994 0 0 1 16.372 3.1 1 1 0 0 1 -.441 1.9z" fill="#5982F1" data-original="#000000" style="" class=""/><path xmlns="http://www.w3.org/2000/svg" d="m31.332 40.824a.986.986 0 0 1 -.439-.1 28.031 28.031 0 0 0 -15.294-2.9 1 1 0 0 1 -.2-1.99 29.994 29.994 0 0 1 16.372 3.1 1 1 0 0 1 -.441 1.9z" fill="#5982F1" data-original="#000000" style="" class=""/><path xmlns="http://www.w3.org/2000/svg" d="m31.332 49.394a1 1 0 0 1 -.439-.1 28.047 28.047 0 0 0 -15.294-2.9 1 1 0 0 1 -.2-1.99 30.034 30.034 0 0 1 16.372 3.1 1 1 0 0 1 -.441 1.9z" fill="#5982F1" data-original="#000000" style="" class=""/></g></svg>
