<?xml version="1.0"?>
<svg xmlns="http://www.w3.org/2000/svg" xmlns:xlink="http://www.w3.org/1999/xlink" xmlns:svgjs="http://svgjs.com/svgjs" version="1.1" width="512" height="512" x="0" y="0" viewBox="0 0 24 24" style="enable-background:new 0 0 512 512" xml:space="preserve" class=""><g><g xmlns="http://www.w3.org/2000/svg" fill="rgb(0,0,0)"><path d="m12.3143 1.61112c-.2148-.17356-.5296-.14014-.7032.07464s-.1401.52959.0746.70315l1.15.92929h-.8357c-5.25143 0-9.5 4.29874-9.5 9.5909 0 5.2922 4.24857 9.5909 9.5 9.5909 5.2514 0 9.5-4.2987 9.5-9.5909 0-3.34644-1.6983-6.29397-4.2727-8.00968-.2298-.15314-.5402-.091-.6934.13879-.1531.22978-.091.54021.1388.69335 2.3056 1.53653 3.8273 4.17667 3.8273 7.17754 0 4.7494-3.8103 8.5909-8.5 8.5909-4.68969 0-8.5-3.8415-8.5-8.5909 0-4.74937 3.81031-8.5909 8.5-8.5909h.8357l-1.15.92928c-.2147.17357-.2482.48838-.0746.70316s.4884.2482.7032.07464l2.25-1.81818c.1174-.09493.1857-.23787.1857-.3889s-.0683-.29397-.1857-.3889z" fill="#42113C" data-original="#000000" style="" class=""/><path clip-rule="evenodd" d="m10.3123 8.60958c-.15-.12007-.35566-.14348-.52889-.06021-.17324.08326-.28341.25844-.28341.45065v7.99998c0 .1922.11017.3674.28341.4507.17323.0832.37889.0598.52889-.0602l5-4c.1187-.0949.1877-.2386.1877-.3905s-.069-.2955-.1877-.3904zm3.8873 4.39042-3.6996 2.9597v-5.9194z" fill-rule="evenodd" fill="#42113C" data-original="#000000" style="" class=""/></g></g></svg>
