<?xml version="1.0"?>
<svg xmlns="http://www.w3.org/2000/svg" xmlns:xlink="http://www.w3.org/1999/xlink" xmlns:svgjs="http://svgjs.com/svgjs" version="1.1" width="512" height="512" x="0" y="0" viewBox="0 0 512.063 512.063" style="enable-background:new 0 0 512 512" xml:space="preserve" class=""><g><g xmlns="http://www.w3.org/2000/svg"><path d="m232.061 344.02c-14.126 0-21.421-17.206-11.313-27.313l60.686-60.687-60.686-60.687c-6.249-6.248-6.249-16.379 0-22.627 6.248-6.248 16.379-6.248 22.627 0l72 72c6.249 6.248 6.249 16.379 0 22.627l-72 72c-3.124 3.125-7.219 4.687-11.314 4.687z" fill="#ffbc4b" data-original="#000000" style=""/></g><g xmlns="http://www.w3.org/2000/svg"><path d="m496.061 273.046c-8.945 0-16.097-7.305-16.002-16.171.006-.572.006-1.138 0-1.709-.094-8.836 6.992-16.075 15.828-16.17 8.829-.121 16.076 6.992 16.17 15.828.009.8.009 1.592 0 2.393-.094 8.777-7.239 15.829-15.996 15.829z" fill="#ffbc4b" data-original="#000000" style=""/></g><g xmlns="http://www.w3.org/2000/svg"><path d="m75.039 437.039c-100.045-100.044-100.06-261.979 0-362.038 57.67-57.672 136.644-82.558 213.02-72.982 110.897 13.896 194.632 96.384 217.557 196.787 1.967 8.615-3.422 17.193-12.037 19.16-8.616 1.964-17.193-3.422-19.16-12.037-20.095-88.01-93.538-160.029-190.34-172.159-134.311-16.84-252.021 87.721-252.021 222.25 0 156.285 155.097 262.073 298.904 211.162 70.981-25.102 126.494-85.653 143.618-161.778 1.939-8.62 10.501-14.035 19.121-12.099 8.621 1.939 14.038 10.5 12.099 19.122-43.901 195.167-287.752 267.623-430.761 124.612z" fill="#ffbc4b" data-original="#000000" style=""/></g></g></svg>
