<?xml version="1.0"?>
<svg xmlns="http://www.w3.org/2000/svg" xmlns:xlink="http://www.w3.org/1999/xlink" xmlns:svgjs="http://svgjs.com/svgjs" version="1.1" width="512" height="512" x="0" y="0" viewBox="0 0 512 512" style="enable-background:new 0 0 512 512" xml:space="preserve" class=""><g>
<g xmlns="http://www.w3.org/2000/svg">
	<g>
		<path d="M256,152c-5.52,0-10,4.48-10,10c0,0.17,0,0.33,0.01,0.49c-0.21,0.02-0.43,0.04-0.64,0.06l0.25-0.01l0.39-0.02    c0.28,5.28,4.65,9.48,9.99,9.48c5.35,0,9.72-4.21,9.99-9.5c0.01-0.16,0.01-0.33,0.01-0.5C266,156.48,261.52,152,256,152z" fill="#5982F1" data-original="#000000" style=""/>
	</g>
</g>
<g xmlns="http://www.w3.org/2000/svg">
	<g>
		<path d="M462.671,60.9c-2.118-1.897-4.948-2.801-7.771-2.49C445.37,59.466,435.647,60,426,60    c-62.87,0-125.976-29.987-164.068-58.051c-3.527-2.599-8.336-2.599-11.863,0C211.976,30.013,148.87,60,86,60    c-9.646,0-19.37-0.535-28.9-1.589c-2.821-0.313-5.651,0.592-7.771,2.49C47.211,62.798,46,65.507,46,68.35v174.4    c0,124.584,91.392,232.277,206.988,268.786c0.98,0.31,1.996,0.464,3.012,0.464c1.016,0,2.031-0.155,3.012-0.464    C374.506,475.06,466,367.44,466,242.75V68.35C466,65.506,464.789,62.797,462.671,60.9z M446,242.75    c0,110.153-77.968,212.003-190,248.745C143.968,454.754,66,352.903,66,242.75V79.294C72.651,79.763,79.343,80,86,80    c64.521,0,128.904-29.052,170-57.7C297.096,50.948,361.479,80,426,80c6.657,0,13.35-0.237,20-0.706V242.75z" fill="#5982F1" data-original="#000000" style=""/>
	</g>
</g>
<g xmlns="http://www.w3.org/2000/svg">
	<g>
		<path d="M416.405,99.799c-49.57-2.009-106.138-20.323-155.198-50.246c-3.197-1.95-7.217-1.95-10.414,0    c-49.06,29.923-105.628,48.236-155.198,50.246c-5.36,0.217-9.595,4.626-9.595,9.992v132.96    c0,96.633,68.468,189.698,166.501,226.318c1.128,0.421,2.313,0.632,3.499,0.632c1.186,0,2.371-0.211,3.499-0.632    C357.532,432.448,426,339.383,426,242.75V109.79C426,104.425,421.766,100.016,416.405,99.799z M406,242.75    c0,87.316-61.493,171.61-150,206.244C167.493,414.36,106,330.066,106,242.75V119.224c64.374-4.872,119.512-31.558,150-49.479    c30.488,17.921,85.626,44.607,150,49.479V242.75z" fill="#5982F1" data-original="#000000" style=""/>
	</g>
</g>
<g xmlns="http://www.w3.org/2000/svg">
	<g>
		<path d="M299.14,160.789c-5.077-2.176-10.955,0.176-13.131,5.252c-2.176,5.076,0.176,10.955,5.252,13.131    C324.514,193.423,346,225.935,346,262c0,51.14-42.056,96-90,96c-47.061,0-90.737-44.02-89.982-97.881    c1.099-36.475,21.551-66.731,54.722-80.948c5.076-2.176,7.428-8.054,5.252-13.131c-2.176-5.076-8.055-7.429-13.131-5.252    c-39.937,17.116-65.547,54.981-66.837,98.817c-0.001,0.051-0.002,0.104-0.003,0.156C145.134,321.412,194.135,378,256,378    c61.582,0,110-56.107,110-116C366,217.924,339.756,178.196,299.14,160.789z" fill="#5982F1" data-original="#000000" style=""/>
	</g>
</g>
<g xmlns="http://www.w3.org/2000/svg">
	<g>
		<path d="M313.071,224.929c-3.906-3.905-10.236-3.905-14.143,0L236,287.858l-32.929-32.929c-3.906-3.905-10.236-3.905-14.142,0    c-3.905,3.905-3.905,10.237,0,14.143l40,40c1.953,1.953,4.512,2.929,7.071,2.929s5.118-0.976,7.071-2.929l70-70    C316.976,235.167,316.976,228.835,313.071,224.929z" fill="#5982F1" data-original="#000000" style=""/>
	</g>
</g>
<g xmlns="http://www.w3.org/2000/svg">
</g>
<g xmlns="http://www.w3.org/2000/svg">
</g>
<g xmlns="http://www.w3.org/2000/svg">
</g>
<g xmlns="http://www.w3.org/2000/svg">
</g>
<g xmlns="http://www.w3.org/2000/svg">
</g>
<g xmlns="http://www.w3.org/2000/svg">
</g>
<g xmlns="http://www.w3.org/2000/svg">
</g>
<g xmlns="http://www.w3.org/2000/svg">
</g>
<g xmlns="http://www.w3.org/2000/svg">
</g>
<g xmlns="http://www.w3.org/2000/svg">
</g>
<g xmlns="http://www.w3.org/2000/svg">
</g>
<g xmlns="http://www.w3.org/2000/svg">
</g>
<g xmlns="http://www.w3.org/2000/svg">
</g>
<g xmlns="http://www.w3.org/2000/svg">
</g>
<g xmlns="http://www.w3.org/2000/svg">
</g>
</g></svg>
