<svg xmlns="http://www.w3.org/2000/svg" xmlns:xlink="http://www.w3.org/1999/xlink" viewBox="0 0 600 600"><defs><style>.cls-1{fill:none;}.cls-2{fill:url(#linear-gradient);}.cls-3{fill:#5982f1;}.cls-4{fill:url(#linear-gradient-2);}.cls-5{fill:url(#linear-gradient-3);}.cls-6{fill:url(#linear-gradient-4);}.cls-7{fill:url(#linear-gradient-5);}.cls-8{fill:url(#linear-gradient-6);}.cls-9{fill:url(#linear-gradient-7);}.cls-10{fill:url(#linear-gradient-8);}.cls-11{fill:url(#linear-gradient-9);}.cls-12{fill:url(#linear-gradient-10);}.cls-13{fill:url(#linear-gradient-11);}.cls-14{fill:url(#linear-gradient-12);}.cls-15{fill:url(#linear-gradient-13);}</style><linearGradient id="linear-gradient" x1="-149.9" y1="614.49" x2="-150.53" y2="614.49" gradientTransform="matrix(-50.96, 50.96, 15.03, 15.03, -16413.14, -1295.37)" gradientUnits="userSpaceOnUse"><stop offset="0" stop-color="#314cd1"/><stop offset="1" stop-color="#5982f1"/></linearGradient><linearGradient id="linear-gradient-2" x1="-149.55" y1="611.67" x2="-148.55" y2="611.67" gradientTransform="matrix(-94.67, 94.67, 15.03, 15.03, -23166.61, 5225.71)" gradientUnits="userSpaceOnUse"><stop offset="0" stop-color="#5982f1"/><stop offset="0.44" stop-color="#314cd1"/><stop offset="1" stop-color="#5982f1"/></linearGradient><linearGradient id="linear-gradient-3" x1="-150.09" y1="606.43" x2="-149.09" y2="606.43" gradientTransform="matrix(-88.95, 88.95, 28.75, 28.75, -30429.32, -3982.54)" gradientUnits="userSpaceOnUse"><stop offset="0" stop-color="#5982f1"/><stop offset="0.52" stop-color="#314cd1"/><stop offset="1" stop-color="#5982f1"/></linearGradient><linearGradient id="linear-gradient-4" x1="-149.31" y1="613.08" x2="-148.68" y2="613.08" gradientTransform="matrix(-144.1, 144.1, 15.03, 15.03, -30385.96, 12561.49)" gradientUnits="userSpaceOnUse"><stop offset="0" stop-color="#5982f1"/><stop offset="0.47" stop-color="#314cd1"/><stop offset="1" stop-color="#5982f1"/></linearGradient><linearGradient id="linear-gradient-5" x1="-150.43" y1="614.49" x2="-149.9" y2="614.49" gradientTransform="matrix(-67.78, 67.78, 15.03, 15.03, -18970.85, 1262.31)" xlink:href="#linear-gradient"/><linearGradient id="linear-gradient-6" x1="-149.55" y1="607.8" x2="-148.7" y2="607.73" gradientTransform="matrix(-87.36, 87.36, 28.75, 28.75, -30212.33, -3993.96)" gradientUnits="userSpaceOnUse"><stop offset="0" stop-color="#5982f1"/><stop offset="0.5" stop-color="#314cd1"/><stop offset="1" stop-color="#5982f1"/></linearGradient><linearGradient id="linear-gradient-7" x1="-147.05" y1="604.12" x2="-146.5" y2="604.12" gradientTransform="matrix(93.97, 93.97, 15.03, -15.03, 4963.5, 23277.39)" xlink:href="#linear-gradient"/><linearGradient id="linear-gradient-8" x1="-145.94" y1="606.94" x2="-146.44" y2="606.94" gradientTransform="matrix(93.95, 93.95, 15.03, -15.03, 4968.36, 23049.29)" xlink:href="#linear-gradient"/><linearGradient id="linear-gradient-9" x1="-147.41" y1="605.53" x2="-145.96" y2="605.53" gradientTransform="matrix(101.47, 101.47, 15.03, -15.03, 6080.39, 24277.8)" gradientUnits="userSpaceOnUse"><stop offset="0" stop-color="#314cd1"/><stop offset="0.29" stop-color="#5982f1"/><stop offset="0.78" stop-color="#5982f1"/><stop offset="1" stop-color="#3f60dc"/></linearGradient><linearGradient id="linear-gradient-10" x1="-146.85" y1="602.44" x2="-146.85" y2="601.67" gradientTransform="matrix(101.48, 101.48, 73.27, -73.27, -28978.98, 59223.6)" xlink:href="#linear-gradient"/><linearGradient id="linear-gradient-11" x1="-145" y1="604.12" x2="-145.92" y2="604.12" gradientTransform="matrix(64.85, 64.85, 15.03, -15.03, 543.68, 18857.56)" xlink:href="#linear-gradient"/><linearGradient id="linear-gradient-12" x1="-147.19" y1="601.68" x2="-146.73" y2="601.68" gradientTransform="matrix(100.88, 100.88, 73.27, -73.27, -28893.64, 59192.46)" xlink:href="#linear-gradient"/><linearGradient id="linear-gradient-13" x1="-144.28" y1="601.75" x2="-142.99" y2="602.04" gradientTransform="matrix(42.64, 42.64, 55.63, -55.63, -26929.15, 39988.37)" xlink:href="#linear-gradient"/></defs><g id="Layer_2" data-name="Layer 2"><g id="Logo-new"><rect class="cls-1" width="600" height="600"/><g id="Group-22-Copy-12"><path id="Rectangle-4-Copy-15" class="cls-2" d="M507.7,230a14.4,14.4,0,0,1,20.5,0,14.6,14.6,0,0,1,0,20.5l-49.1,49A14.5,14.5,0,0,1,458.6,279Z"/><path id="Path" class="cls-3" d="M212.4,408.1c-6.3,6.3-10.4,13-12.4,19.8a33.7,33.7,0,0,0,0,19.4c2,6.8,6.1,13.5,12.4,19.8s12.9,10.4,19.7,12.4a33.7,33.7,0,0,0,19.4,0c6.8-2,13.5-6.2,19.8-12.4L438.5,299.9A14.5,14.5,0,0,1,459,320.4L291.8,487.6c-9.6,9.6-20.5,16.3-32.1,19.7a62,62,0,0,1-35.7,0c-11.7-3.4-22.6-10.1-32.1-19.7s-16.3-20.5-19.8-32.1a64.1,64.1,0,0,1,0-35.8c3.5-11.6,10.2-22.5,19.8-32.1L388.4,191c6.3-6.2,10.4-12.9,12.4-19.8a33.4,33.4,0,0,0,0-19.3c-2-6.9-6.1-13.6-12.4-19.8s-12.9-10.4-19.7-12.4a33.7,33.7,0,0,0-19.4,0,46.5,46.5,0,0,0-19.8,12.4L92.3,369.2a14.4,14.4,0,0,1-20.5,0,14.6,14.6,0,0,1,0-20.5L309,111.6c9.6-9.6,20.5-16.3,32.1-19.7a62,62,0,0,1,35.7,0c11.7,3.4,22.6,10.1,32.1,19.7s16.3,20.5,19.8,32.1a63.7,63.7,0,0,1,0,35.7c-3.5,11.6-10.2,22.5-19.8,32.1Z"/><path id="Path-2" data-name="Path" class="cls-4" d="M180.6,240a14.4,14.4,0,0,1,20.5,0,14.6,14.6,0,0,1,0,20.5L92.4,369.2a14.5,14.5,0,0,1-20.5-20.5Z"/><path id="Path-3" data-name="Path" class="cls-5" d="M376.8,91.9a14.5,14.5,0,0,1-8.1,27.8,33.7,33.7,0,0,0-19.4,0,46.5,46.5,0,0,0-19.8,12.4l-66.1,66a14.4,14.4,0,0,1-20.5,0,14.6,14.6,0,0,1,0-20.5l66.1-66c9.6-9.6,20.5-16.3,32.1-19.7A62,62,0,0,1,376.8,91.9Z"/><polygon id="Path-4" data-name="Path" class="cls-6" points="212.6 407.8 409.2 211.2 388.7 190.7 192.1 387.3 212.6 407.8"/><path id="Path-5" data-name="Path" class="cls-7" d="M438.5,299.1A14.5,14.5,0,0,1,459,319.6l-72,71.9a14.4,14.4,0,0,1-20.5,0,14.6,14.6,0,0,1,0-20.5Z"/><path id="Rectangle-4-Copy-15-2" data-name="Rectangle-4-Copy-15" class="cls-8" d="M335.2,403.2a14.5,14.5,0,0,1,20.5,20.5l-63.9,63.9c-9.6,9.6-20.4,16.3-32.1,19.7a62,62,0,0,1-35.7,0,14.5,14.5,0,1,1,8.2-27.8,33.4,33.4,0,0,0,19.3,0c6.9-2,13.6-6.1,19.8-12.4Z"/><path id="Rectangle-4-Copy-14" class="cls-3" d="M232.9,412.4a14.6,14.6,0,0,1,0-20.5,14.4,14.4,0,0,1,20.5,0L369.2,507.6a14.5,14.5,0,0,1-20.5,20.5Z"/><path id="Rectangle-4-Copy-14-2" data-name="Rectangle-4-Copy-14" class="cls-9" d="M220.5,399.9,241,379.4,369.2,507.6l-20.5,20.5ZM241,379.4,369.2,507.6l-20.5,20.5L220.5,399.9Z"/><path id="Path-6" data-name="Path" class="cls-3" d="M230.8,92.4a14.5,14.5,0,0,1,20.5-20.5L365.9,186.4a14.6,14.6,0,0,1,0,20.5,14.4,14.4,0,0,1-20.5,0Z"/><polygon id="Path-7" data-name="Path" class="cls-10" points="230.8 92.4 251.3 71.9 379.5 200 359 220.5 230.8 92.4"/><polygon id="Path-8" data-name="Path" class="cls-11" points="220.5 241 241 220.5 379.5 359 359 379.5 220.5 241"/><path id="Path-9" data-name="Path" class="cls-12" d="M220.6,200.1l-20.5,20.5-9-9.1c-6.3-6.2-13-10.3-19.8-12.4a35.5,35.5,0,0,0-19.4,0c-6.8,2.1-13.5,6.2-19.8,12.4s-10.4,13-12.4,19.8a33.7,33.7,0,0,0,0,19.4c2,6.8,6.1,13.5,12.4,19.8L220.6,359l-20.5,20.5L111.6,291c-9.6-9.6-16.3-20.5-19.7-32.1a62,62,0,0,1,0-35.7c3.4-11.7,10.1-22.6,19.7-32.2s20.5-16.2,32.1-19.7a63.7,63.7,0,0,1,35.7,0c11.7,3.5,22.6,10.2,32.2,19.7Z"/><polygon id="Path-10" data-name="Path" class="cls-13" points="111.6 291 132.1 270.5 220.6 359 200.1 379.5 111.6 291"/><path id="Path-11" data-name="Path" class="cls-14" d="M379.5,241,400,220.5l87.6,87.7c9.6,9.6,16.3,20.5,19.7,32.1a62,62,0,0,1,0,35.7c-3.4,11.7-10.1,22.6-19.7,32.1s-20.5,16.3-32.1,19.8a63.7,63.7,0,0,1-35.7,0c-11.7-3.5-22.6-10.2-32.2-19.8l-8.1-8.1L400,379.5l8.1,8.1c6.3,6.3,13,10.4,19.8,12.4a33.7,33.7,0,0,0,19.4,0c6.8-2,13.5-6.1,19.8-12.4s10.4-12.9,12.4-19.8a33.4,33.4,0,0,0,0-19.3,46.5,46.5,0,0,0-12.4-19.8Z"/><path id="Path-12" data-name="Path" class="cls-15" d="M479.5,367.8l27.8,8.2c-3.4,11.7-10.1,22.6-19.7,32.1s-20.5,16.3-32.1,19.8a63.7,63.7,0,0,1-35.7,0c-11.7-3.5-22.6-10.2-32.2-19.8l-8.1-8.1L400,379.5l8.1,8.1c6.3,6.3,13,10.4,19.8,12.4a33.7,33.7,0,0,0,19.4,0c6.8-2,13.5-6.1,19.8-12.4S477.5,374.7,479.5,367.8Z"/></g></g></g></svg>
