<svg width="59" height="59" xmlns="http://www.w3.org/2000/svg">
    <g fill="#6B6B6B" fill-rule="nonzero">
        <path d="M29.32 58.145C13.4 58.145.493 45.24.493 29.32S13.399.494 29.319.494s28.826 12.905 28.826 28.825S45.24 58.145 29.32 58.145zm0-4.551c13.406 0 24.274-10.868 24.274-24.275 0-13.406-10.868-24.274-24.275-24.274-13.406 0-24.274 10.868-24.274 24.274 0 13.407 10.868 24.275 24.274 24.275z"/>
        <path d="M32.931 39.072c-.18-.18-.18-.541-.36-.903 0-.36-.181-.722-.181-1.083-.362.36-.723.542-1.084.903-.361.361-.903.542-1.264.722-.542.18-.903.361-1.626.542-.542.18-1.264.18-1.806.18-1.084 0-1.987-.18-2.89-.541-.903-.361-1.625-.723-2.348-1.264-.722-.542-1.083-1.265-1.445-1.987-.36-.723-.541-1.626-.541-2.529 0-2.167.903-3.973 2.528-5.057 1.626-1.264 4.154-1.806 7.405-1.806h3.07v-1.264c0-1.084-.36-1.806-.902-2.348-.723-.542-1.626-.903-2.89-.903-1.084 0-1.806.18-2.348.722-.542.542-.723 1.084-.723 1.806h-5.418c0-.903.18-1.806.542-2.528.361-.723.903-1.445 1.806-2.168a9.572 9.572 0 0 1 2.71-1.445c1.083-.36 2.347-.541 3.792-.541 1.264 0 2.348.18 3.432.541 1.083.362 1.986.723 2.89 1.445.722.542 1.444 1.445 1.806 2.348.36.903.722 1.987.722 3.251v9.03c0 1.085 0 1.988.18 2.71.181.723.362 1.445.542 1.806v.361h-5.599zm-5.237-3.792c.542 0 1.083 0 1.445-.181.541-.18.903-.361 1.264-.542.361-.18.722-.361.903-.722l.722-.723V29.5H29.32c-.903 0-1.625 0-2.167.18-.542.181-1.084.362-1.445.723s-.722.542-.903 1.084c-.18.36-.18.903-.18 1.264 0 .722.18 1.264.722 1.806s1.445.723 2.348.723z"/>
    </g>
</svg>
