<svg width="122" height="44" xmlns="http://www.w3.org/2000/svg">
    <g fill="#6B6B6B" fill-rule="nonzero">
        <path d="M121.59 37.249c-.64-2.786-1.535-6.332-2.302-8.105-.127-.38-.255-.76-.51-1.267-1.28-3.42-3.708-9.751-9.589-9.751H87.33c2.174 2.026 3.452 4.559 4.347 6.712h4.474l.767 15.577c.128 1.646 1.406 3.04 2.94 3.166 1.534.127 3.068.253 4.73.253 1.534 0 3.068-.126 4.73-.253 1.662-.127 2.94-1.646 2.94-3.293l.256-10.005c.128.507.384 1.014.511 1.394.512 1.266 1.279 4.179 1.918 6.965.511 2.026 2.685 3.166 4.602 2.406h.128a3.255 3.255 0 0 0 1.918-3.8z"/>
        <ellipse cx="104.715" cy="8.248" rx="8.054" ry="7.979"/>
        <path d="M63.935 18H29.036c2.173 2.025 3.452 4.685 4.347 6.711h3.835l1.534 15.45c0 1.647 1.278 3.04 2.94 3.293 1.534.127 3.068.254 4.602.254 1.534 0 3.196-.127 4.73-.254 1.662-.126 2.94-1.646 2.94-3.292l1.406-15.45h4.091c.895-2.027 2.301-4.687 4.474-6.713z"/>
        <ellipse cx="46.422" cy="8.248" rx="8.054" ry="7.979"/>
        <path d="M31.976 29.144a8.684 8.684 0 0 0-.511-1.267c-1.278-3.42-3.707-9.751-9.588-9.751h-9.204c-6.008 0-8.31 6.332-9.588 9.751-.128.507-.383.887-.511 1.267-.767 1.773-1.662 5.319-2.301 8.105-.384 1.646.511 3.166 2.045 3.8h.128c1.918.759 4.09-.38 4.602-2.407.64-2.786 1.406-5.826 1.918-6.965.128-.38.383-.887.511-1.394l.256 10.005c0 1.647 1.278 3.04 2.94 3.293 1.534.127 3.068.253 4.602.253 1.534 0 3.196-.126 4.602-.253 1.662-.127 2.94-1.646 2.94-3.293l.256-10.005c.128.507.384 1.014.512 1.394.51 1.266 1.278 4.179 1.917 6.965.511 2.026 2.685 3.166 4.602 2.406h.128c1.534-.633 2.429-2.28 2.045-3.8-.639-2.912-1.534-6.331-2.3-8.104z"/>
        <ellipse cx="17.275" cy="8.248" rx="8.054" ry="7.979"/>
        <path d="M90.27 29.144a8.684 8.684 0 0 0-.512-1.267c-1.278-3.42-3.707-9.751-9.587-9.751h-9.205c-6.008 0-8.309 6.332-9.587 9.751-.128.507-.384.887-.512 1.267-.767 1.773-1.662 5.319-2.3 8.105-.384 1.646.51 3.166 2.045 3.8h.127c1.918.759 4.091-.38 4.603-2.407.639-2.786 1.406-5.826 1.917-6.965.128-.38.384-.887.511-1.394l.256 10.005c0 1.647 1.278 3.04 2.94 3.293 1.534.127 3.068.253 4.602.253 1.535 0 3.196-.126 4.603-.253 1.661-.127 2.94-1.646 2.94-3.293l.255-10.005c.128.507.384 1.014.512 1.394.511 1.266 1.278 4.179 1.917 6.965.512 2.026 2.685 3.166 4.602 2.406h.128c1.534-.633 2.43-2.28 2.046-3.8-.64-2.912-1.534-6.331-2.301-8.104z"/>
        <ellipse cx="75.568" cy="8.248" rx="8.054" ry="7.979"/>
    </g>
</svg>
