<svg xmlns="http://www.w3.org/2000/svg" width="1000" height="526.799" viewBox="0 0 1000 526.799">
<switch xmlns="http://www.w3.org/2000/svg" transform="translate(69.785 -229.775) scale(9.86355)" fill="#3668aa">
<g xmlns:i="http://ns.adobe.com/AdobeIllustrator/10.0/" i:extraneous="self">
<path d="M97.4 62c-.5-2.2-1.2-5-1.8-6.4-.1-.3-.2-.6-.4-1-1-2.7-2.9-7.7-7.5-7.7H70.6c1.7 1.6 2.7 3.6 3.4 5.3h3.5l.6 12.3c.1 1.3 1.1 2.4 2.3 2.5 1.2.1 2.4.2 3.7.2 1.2 0 2.4-.1 3.7-.2 1.3-.1 2.3-1.3 2.3-2.6l.2-7.9c.1.4.3.8.4 1.1.4 1 1 3.3 1.5 5.5.4 1.6 2.1 2.5 3.6 1.9h.1c1.2-.5 1.8-1.8 1.5-3z"/><circle cx="84.2" cy="39.1" r="6.3"/><path d="M52.3 46.8H25c1.7 1.6 2.7 3.7 3.4 5.3h3l1.2 12.2c0 1.3 1 2.4 2.3 2.6 1.2.1 2.4.2 3.6.2 1.2 0 2.5-.1 3.7-.2 1.3-.1 2.3-1.3 2.3-2.6l1.1-12.2h3.2c.7-1.6 1.8-3.7 3.5-5.3z"/><circle cx="38.6" cy="39.1" r="6.3"/><path d="M27.3 55.6c-.1-.3-.2-.6-.4-1-1-2.7-2.9-7.7-7.5-7.7h-7.2c-4.7 0-6.5 5-7.5 7.7-.1.4-.3.7-.4 1C3.7 57 3 59.8 2.5 62c-.3 1.3.4 2.5 1.6 3h.1c1.5.6 3.2-.3 3.6-1.9.5-2.2 1.1-4.6 1.5-5.5.1-.3.3-.7.4-1.1l.2 7.9c0 1.3 1 2.4 2.3 2.6 1.2.1 2.4.2 3.6.2 1.2 0 2.5-.1 3.6-.2 1.3-.1 2.3-1.3 2.3-2.6l.2-7.9c.1.4.3.8.4 1.1.4 1 1 3.3 1.5 5.5.4 1.6 2.1 2.5 3.6 1.9h.1c1.2-.5 1.9-1.8 1.6-3-.5-2.3-1.2-5-1.8-6.4z"/><circle cx="15.8" cy="39.1" r="6.3"/><path d="M72.9 55.6c-.1-.3-.2-.6-.4-1-1-2.7-2.9-7.7-7.5-7.7h-7.2c-4.7 0-6.5 5-7.5 7.7-.1.4-.3.7-.4 1-.6 1.4-1.3 4.2-1.8 6.4-.3 1.3.4 2.5 1.6 3h.1c1.5.6 3.2-.3 3.6-1.9.5-2.2 1.1-4.6 1.5-5.5.1-.3.3-.7.4-1.1l.2 7.9c0 1.3 1 2.4 2.3 2.6 1.2.1 2.4.2 3.6.2 1.2 0 2.5-.1 3.6-.2 1.3-.1 2.3-1.3 2.3-2.6l.2-7.9c.1.4.3.8.4 1.1.4 1 1 3.3 1.5 5.5.4 1.6 2.1 2.5 3.6 1.9h.1c1.2-.5 1.9-1.8 1.6-3-.5-2.3-1.2-5-1.8-6.4z"/><circle cx="61.4" cy="39.1" r="6.3"/></g>
</switch>
</svg>
