<svg width="58" height="59" xmlns="http://www.w3.org/2000/svg" xmlns:xlink="http://www.w3.org/1999/xlink">
    <defs>
        <path id="a" d="M0 .014h57.99v57.947H0z"/>
    </defs>
    <g fill="none" fill-rule="evenodd">
        <g transform="translate(0 .025)">
            <mask id="b" fill="#fff">
                <use xlink:href="#a"/>
            </mask>
            <path d="M27.991.014h2.01c.069.012.137.031.206.034 1.715.065 3.41.285 5.086.66 5.263 1.18 9.845 3.64 13.746 7.354a28.61 28.61 0 0 1 6.285 8.79 28.725 28.725 0 0 1 2.62 10.53 28.959 28.959 0 0 1-.374 6.519 28.5 28.5 0 0 1-2.402 7.565 28.89 28.89 0 0 1-6.895 9.162 28.7 28.7 0 0 1-7.284 4.746 28.788 28.788 0 0 1-10.862 2.565 29.055 29.055 0 0 1-6.384-.452 28.63 28.63 0 0 1-8.364-2.915 28.843 28.843 0 0 1-8.212-6.518 28.69 28.69 0 0 1-5.866-10.48 28.441 28.441 0 0 1-1.227-6.622c-.02-.32-.05-.638-.074-.956v-2.01c.012-.068.032-.136.034-.204.042-1.159.165-2.309.349-3.454a28.388 28.388 0 0 1 2.442-7.812 28.795 28.795 0 0 1 6.838-9.11A28.737 28.737 0 0 1 20.74 1.215 28.35 28.35 0 0 1 27.053.087c.313-.02.626-.048.938-.073" fill="#6B6B6B" mask="url(#b)"/>
        </g>
        <path d="m24.678 32.305-.747 3.572c-.466 2.228-.932 4.455-1.396 6.683-.02.093-.048.145-.16.145-1.52-.004-3.04-.003-4.561-.004-.019 0-.037-.008-.089-.02l5.394-25.323h4.782l-2.208 10.385c.287 0 .555.008.821-.005.054-.003.114-.074.156-.126l5.95-7.55c.677-.859 1.352-1.72 2.033-2.576.052-.064.152-.129.23-.129 1.772-.007 3.544-.006 5.316-.005.038 0 .075.007.115.01.038.252.007.454-.162.664-3.115 3.87-6.22 7.746-9.328 11.621-.228.285-.205.636-.07.909 1.236 2.488 2.498 4.963 3.752 7.442.738 1.457 1.478 2.913 2.212 4.372.045.09.05.202.08.333h-.247c-1.618 0-3.235-.002-4.852.004-.157 0-.238-.049-.308-.188-1.703-3.355-3.41-6.707-5.114-10.061-.057-.111-.117-.16-.248-.156-.443.009-.887.003-1.35.003" fill="#FFF"/>
    </g>
</svg>
