<svg width="58" height="59" xmlns="http://www.w3.org/2000/svg" xmlns:xlink="http://www.w3.org/1999/xlink">
    <defs>
        <path id="a" d="M0 .014h57.99v57.947H0z"/>
    </defs>
    <g transform="translate(0 .025)" fill="none" fill-rule="evenodd">
        <mask id="b" fill="#fff">
            <use xlink:href="#a"/>
        </mask>
        <path d="M27.991.014h2.01c.069.012.137.031.206.034 1.715.065 3.41.285 5.086.66 5.263 1.18 9.845 3.64 13.746 7.354a28.61 28.61 0 0 1 6.285 8.79 28.725 28.725 0 0 1 2.62 10.53 28.959 28.959 0 0 1-.374 6.519 28.5 28.5 0 0 1-2.402 7.565 28.89 28.89 0 0 1-6.895 9.162 28.7 28.7 0 0 1-7.284 4.746 28.788 28.788 0 0 1-10.862 2.565 29.055 29.055 0 0 1-6.384-.452 28.63 28.63 0 0 1-8.364-2.915 28.843 28.843 0 0 1-8.212-6.518 28.69 28.69 0 0 1-5.866-10.48 28.441 28.441 0 0 1-1.227-6.622c-.02-.32-.05-.638-.074-.956v-2.01c.012-.068.032-.136.034-.204.042-1.159.165-2.309.349-3.454a28.388 28.388 0 0 1 2.442-7.812 28.795 28.795 0 0 1 6.838-9.11A28.737 28.737 0 0 1 20.74 1.215 28.35 28.35 0 0 1 27.053.087c.313-.02.626-.048.938-.073zM24.678 32.28c.464 0 .908.006 1.351-.003.131-.003.191.045.248.156 1.703 3.354 3.411 6.706 5.114 10.06.07.14.15.19.308.19 1.617-.007 3.234-.005 4.852-.005h.248c-.03-.13-.036-.242-.081-.332-.734-1.46-1.474-2.916-2.212-4.373-1.254-2.479-2.516-4.954-3.752-7.442-.135-.272-.158-.623.07-.909 3.107-3.875 6.213-7.751 9.328-11.62.169-.21.2-.413.162-.664-.04-.004-.077-.01-.115-.01-1.772-.001-3.544-.003-5.316.004-.078 0-.178.065-.23.13-.681.855-1.356 1.716-2.033 2.576l-5.95 7.549c-.042.052-.102.123-.156.126-.266.013-.534.006-.821.006L27.9 17.333h-4.782l-5.394 25.323c.052.012.07.02.089.02 1.52.001 3.041 0 4.562.004.111 0 .14-.051.16-.145.463-2.228.929-4.455 1.395-6.683l.747-3.572z" fill="#000000" mask="url(#b)"/>
    </g>
</svg>
