<svg width="58" height="58" xmlns="http://www.w3.org/2000/svg">
    <g fill="#6B6B6B" fill-rule="evenodd">
        <path d="M4.415 13.068c1.773 1.484 3.534 2.918 5.225 4.429.192.171.114.83-.046 1.168-1.152 2.425-1.915 4.958-2.163 7.624-.598 6.413.84 12.297 4.98 17.35 3.43 4.186 7.972 6.57 13.34 7.323 5.175.724 10.075-.172 14.586-2.851.976-.58 1.884-1.28 2.79-1.968.374-.285.61-.331.998-.002 1.392 1.182 2.828 2.315 4.235 3.48.894.74.901.82.036 1.535-3.282 2.71-6.945 4.7-11.107 5.743-6.448 1.615-12.853 1.439-19.112-.769C12.48 54.12 7.85 50.618 4.7 45.443c-5.504-9.04-6.02-18.542-2.359-28.346.467-1.25 1.153-2.42 1.746-3.624.061-.125.177-.223.327-.405M53.74 44.468c-1.821-1.53-3.57-2.982-5.283-4.472-.14-.123-.146-.553-.049-.768 1.608-3.544 2.377-7.26 2.218-11.136-.272-6.626-2.574-12.389-7.877-16.631-5.624-4.499-12.109-5.575-19.086-4.11-3.115.654-5.91 2.02-8.382 4.001-.533.428-.86.409-1.365-.028-1.56-1.348-3.167-2.642-4.882-4.063.465-.42.833-.8 1.248-1.122C14.868 2.578 20.093.634 25.88.144c4.801-.406 9.521.01 14.044 1.724 8.252 3.128 13.789 8.894 16.461 17.23 2.302 7.181 2 14.355-.605 21.422-.431 1.17-1.066 2.268-1.617 3.395-.075.154-.21.279-.422.553"/>
        <path d="M24.137 42.018c-1.473-.07-2.948-.12-4.42-.212-1.965-.122-3.395-1.459-3.557-3.406-.24-2.882-.424-5.77-.612-8.655-.096-1.478.565-2.623 1.789-3.395 1.217-.767 2.517-.752 3.766-.02 1.05.618 1.654 1.558 1.768 2.761a84.84 84.84 0 0 1 .33 4.55c.032.81.298 1.12 1.164 1.129 1.532.016 3.07.127 4.591.305 1.585.185 2.643 1.105 3.082 2.635.428 1.49.068 2.876-1.172 3.764-.72.515-1.763.746-2.678.794-1.343.07-2.7-.137-4.052-.226l.001-.024M41.017 28.98c.16 1.446-.1 2.76-1.377 3.727-1.16.877-2.409 1.057-3.735.491-1.29-.55-2.055-1.526-2.167-2.942-.128-1.605-.257-3.21-.347-4.817-.03-.546-.215-.794-.794-.822-1.472-.072-2.94-.21-4.412-.292-2.32-.13-3.896-1.747-3.787-3.913.103-2.068 1.877-3.533 4.172-3.397 2.763.164 5.525.355 8.286.556 2.093.152 3.443 1.448 3.614 3.53.215 2.615.367 5.234.547 7.879"/>
    </g>
</svg>
