<svg width="58" height="58" xmlns="http://www.w3.org/2000/svg">
    <defs>
        <linearGradient x1="-22.155%" y1="49.88%" x2="50%" y2="49.88%" id="a">
            <stop stop-opacity="0" offset="0%"/>
            <stop offset="100%"/>
        </linearGradient>
        <linearGradient x1="118.176%" y1="63.327%" x2="57.875%" y2="63.327%" id="b">
            <stop stop-opacity="0" offset="0%"/>
            <stop offset="100%"/>
        </linearGradient>
    </defs>
    <g fill-rule="nonzero" fill="none">
        <path d="M.408.266C.345.592-.114 5.383.18 5.418l1.245.02c1.103.015 2.193.033 2.193.033 1.227.098 2.415.362 3.47 1.015.48.302.974.618 1.389 1-.05-.644-.444-5.787-.492-6.431C6.58.515 5.05.235 3.404.205 1.608.242.61.265.409.266z" transform="translate(41.34 16.006)" fill="url(#a)"/>
        <path d="M36.53 44.787c-.026.118-.074.243-.074.37-.007.888-.243 1.736-.59 2.533-.375.871-.889 1.677-1.603 2.32-.306.279-.637.523-.959.781-.838.681-1.819 1.064-2.86 1.24-1.433.245-2.846.149-4.228-.39-.918-.36-1.713-.894-2.429-1.542-.618-.562-1.055-1.27-1.452-2.007-.363-.669-.614-1.374-.697-2.114-.1-.854-.1-1.721-.107-2.582-.01-2.092.002-4.184 0-6.278 0-.2-.037-.4-.052-.538-1.282-.004-2.534-.008-3.794-.015-.111-.002-.668-.017-1.67-.046l.133 5.093.039-.002c.002.491.002.978 0 1.47-.002 1.653.03 3.302.474 4.918a12.3 12.3 0 0 0 1.658 3.669c.543.806 1.203 1.54 1.869 2.254.38.404.86.716 1.317 1.043.487.348.967.721 1.502.983.747.37 1.536.669 2.322.952 1.044.376 2.138.529 3.243.538.797.004 1.605-.027 2.39-.155.855-.136 1.72-.33 2.526-.64 1.05-.406 2.038-.95 2.972-1.616 1.531-1.095 2.717-2.457 3.639-4.08.476-.839.864-1.71 1.14-2.638a12.3 12.3 0 0 0 .504-3.092c.007-.14-.03-.28-.041-.376l-5.172-.053" fill="#FFF"/>
        <path d="M36.53 44.787c-.026.118-.074.243-.074.37-.007.888-.243 1.736-.59 2.533-.375.871-.889 1.677-1.603 2.32-.306.279-.637.523-.959.781-.838.681-1.819 1.064-2.86 1.24-1.433.245-2.846.149-4.228-.39-.918-.36-1.713-.894-2.429-1.542-.618-.562-1.055-1.27-1.452-2.007-.363-.669-.614-1.374-.697-2.114-.1-.854-.1-1.721-.107-2.582-.01-2.092.002-4.184 0-6.278 0-.2-.037-.4-.052-.538-1.282-.004-2.534-.008-3.794-.015-.111-.002-.668-.017-1.67-.046l.133 5.093.039-.002c.002.491.002.978 0 1.47-.002 1.653.03 3.302.474 4.918a12.3 12.3 0 0 0 1.658 3.669c.543.806 1.203 1.54 1.869 2.254.38.404.86.716 1.317 1.043.487.348.967.721 1.502.983.747.37 1.536.669 2.322.952 1.044.376 2.138.529 3.243.538.797.004 1.605-.027 2.39-.155.855-.136 1.72-.33 2.526-.64 1.05-.406 2.038-.95 2.972-1.616 1.531-1.095 2.717-2.457 3.639-4.08.476-.839.864-1.71 1.14-2.638a12.3 12.3 0 0 0 .504-3.092c.007-.14-.03-.28-.041-.376l-5.172-.053" fill="#000"/>
        <path d="M5.79 28.731c.451-4.49 3.06-6.794 7.377-7.318.002-1.71.008-3.418.015-5.18-.186-.015-.352-.05-.513-.037a7.468 7.468 0 0 0-.959.12c-.758.153-1.53.282-2.27.51-.68.208-1.34.501-1.971.822-.59.3-1.166.638-1.693 1.035-.622.465-1.196.996-1.762 1.531-.288.273-.522.607-.758.93-.402.55-.83 1.092-1.168 1.684a9.833 9.833 0 0 0-.756 1.73c-.262.769-.511 1.553-.655 2.352a11.553 11.553 0 0 0-.125 3.108c.103 1.11.313 2.195.712 3.234.184.483.404.95.63 1.413.211.437.42.878.687 1.282.323.483.703.924 1.06 1.385.783 1.015 1.814 1.742 2.863 2.439.065.044.133.087.2.129l1.868-5.067c-1.708-1.301-2.656-3.313-2.783-6.102" fill="#FFF"/>
        <path d="M13.167 21.413c.002-1.71.008-3.418.015-5.18-.186-.015-.352-.05-.513-.037a7.468 7.468 0 0 0-.959.12c-.758.153-1.53.282-2.27.51-.68.208-1.34.501-1.971.822-.59.3-1.166.638-1.693 1.035-.622.465-1.196.996-1.762 1.531-.288.273-.522.607-.758.93-.402.55-.83 1.092-1.168 1.684a9.833 9.833 0 0 0-.756 1.73c-.262.769-.511 1.553-.655 2.352a11.553 11.553 0 0 0-.125 3.108c.103 1.11.313 2.195.712 3.234.184.483.404.95.63 1.413.211.437.42.878.687 1.282.323.483.703.924 1.06 1.385.783 1.015 1.814 1.742 2.863 2.439.065.044.133.087.2.129.09-.243 1.465-.56 1.868-1.652.437-1.185-.097-3.151 0-3.415-1.708-1.301-2.656-3.313-2.783-6.102.452-4.49 3.06-6.794 7.378-7.318z" fill="#000"/>
        <path d="m49.323 17.06.492 6.432c.116.103.227.212.327.328.457.522.885 1.087 1.221 1.725.588 1.125.808 2.306.81 3.547.003.908-.205 1.775-.52 2.634a7.292 7.292 0 0 1-1.146 2.017c-.736.933-1.692 1.632-2.78 2.104-.8.347-1.642.587-2.529.594-.397.002-.491.107-.494.51-.004.879 0 1.752-.002 2.626-.002.696-.008 1.393-.015 2.107 3.158.227 8.478-1.472 11.3-6.726 2.29-4.272 2.162-9.922-1.682-14.349-1.426-1.644-3.092-2.828-4.982-3.548" fill="#FFF"/>
        <path d="M47.727 19.937c.128 1.668 2.067 3.28 2.088 3.555.116.103.227.212.327.328.457.522.885 1.087 1.221 1.725.588 1.125.808 2.306.81 3.547.003.908-.205 1.775-.52 2.634a7.292 7.292 0 0 1-1.146 2.017c-.736.933-1.692 1.632-2.78 2.104-.8.347-1.642.587-2.529.594-.397.002-.491.107-.494.51-.004.879 0 1.752-.002 2.626-.002.696-.008 1.393-.015 2.107 3.158.227 8.478-1.472 11.3-6.726 2.29-4.272 2.162-9.922-1.682-14.349-1.426-1.644-3.092-2.828-4.982-3.548-1.207.834-1.668 1.928-1.596 2.876z" fill="#000"/>
        <path d="m33.514 16.196-17.292.013c.002 5.74.004 11.52.004 17.386l5.454.004-.027-12.024h11.813c.018-1.846.033-3.639.048-5.38" fill="#FFF"/>
        <path d="m33.514 16.196-17.292.013c.002 5.74.004 11.52.004 17.386l5.454.004-.027-12.024h11.813c.018-1.846.033-3.639.048-5.38" fill="#000"/>
        <g>
            <path d="M36.375 24.455c0 3.942 0 7.913-.002 11.924-3.997.003-7.95.003-11.974.005l-.014 5.32 17.452-.015-.007-17.186a5288.12 5288.12 0 0 0-5.455-.048" fill="#FFF"/>
            <path d="M36.375 24.455c0 3.942 0 7.913-.002 11.924-3.997.003-7.95.003-11.974.005l-.014 5.32 17.452-.015-.007-17.186a5288.12 5288.12 0 0 0-5.455-.048" fill="#000"/>
        </g>
        <g transform="translate(6.615 34.787)" fill="url(#b)">
            <path d="M1.957.046C1.77.553.275 4.606.09 5.113c.414.26.853.484 1.299.69.49.227.991.428 1.507.574.72.203 1.448.376 2.184.5.493.083 1.002.061 1.487.085.2-.017 1.188-.06 2.966-.137L9.4 1.732l-3.578-.098C4.27 1.352 2.98.826 1.957.046z"/>
        </g>
        <g>
            <path d="M41.743 15.187c-.006-1.599.103-3.208-.312-4.779-.164-.622-.332-1.249-.579-1.84-.26-.627-.579-1.241-.939-1.818a16.763 16.763 0 0 0-1.396-1.943c-.572-.669-1.214-1.284-1.967-1.767-.254-.16-.463-.391-.719-.546a12.273 12.273 0 0 0-1.286-.684c-.699-.31-1.396-.657-2.127-.85-1.278-.338-2.584-.508-3.92-.447-1.12.055-2.22.216-3.278.555-.686.216-1.343.53-1.994.84-.496.236-.992.494-1.437.813a14.484 14.484 0 0 0-3.368 3.355 2.396 2.396 0 0 0-.146.238c-.238.436-.49.864-.708 1.31-.253.517-.537 1.035-.703 1.585-.231.76-.384 1.544-.524 2.328-.094.549-.103 1.11-.153 1.658l5.32-.02c.004-.059.01-.148.013-.242.018-1.037.315-2.005.723-2.944a5.712 5.712 0 0 1 1.219-1.762c.495-.496 1.04-.97 1.633-1.341.553-.347 1.188-.586 1.813-.795.476-.162.99-.275 1.49-.286.68-.018 1.375.026 2.043.146.614.114 1.236.3 1.798.577.607.303 1.164.718 1.703 1.135.339.26.63.599.898.937a7.378 7.378 0 0 1 1.08 1.865c.322.817.512 1.651.531 2.516.027 1.088-.008 2.182-.01 3.272-.003 1.384-.003 2.764.002 4.149 0 .345.02.694.028 1.002l4.019.007 1.028.013c-.292-.035.166-4.826.23-5.152 0-.36 0-.723-.005-1.085z" fill="#FFF"/>
            <path d="M41.743 15.187c-.006-1.599.103-3.208-.312-4.779-.164-.622-.332-1.249-.579-1.84-.26-.627-.579-1.241-.939-1.818a16.763 16.763 0 0 0-1.396-1.943c-.572-.669-1.214-1.284-1.967-1.767-.254-.16-.463-.391-.719-.546a12.273 12.273 0 0 0-1.286-.684c-.699-.31-1.396-.657-2.127-.85-1.278-.338-2.584-.508-3.92-.447-1.12.055-2.22.216-3.278.555-.686.216-1.343.53-1.994.84-.496.236-.992.494-1.437.813a14.484 14.484 0 0 0-3.368 3.355 2.396 2.396 0 0 0-.146.238c-.238.436-.49.864-.708 1.31-.253.517-.537 1.035-.703 1.585-.231.76-.384 1.544-.524 2.328-.094.549-.103 1.11-.153 1.658l5.32-.02c.004-.059.01-.148.013-.242.018-1.037.315-2.005.723-2.944a5.712 5.712 0 0 1 1.219-1.762c.495-.496 1.04-.97 1.633-1.341.553-.347 1.188-.586 1.813-.795.476-.162.99-.275 1.49-.286.68-.018 1.375.026 2.043.146.614.114 1.236.3 1.798.577.607.303 1.164.718 1.703 1.135.339.26.63.599.898.937a7.378 7.378 0 0 1 1.08 1.865c.322.817.512 1.651.531 2.516.027 1.088-.008 2.182-.01 3.272-.003 1.384-.003 2.764.002 4.149 0 .345.02.694.028 1.002l4.019.007 1.028.013c0-.746.166-4.826.23-5.152 0-.36 0-.723-.005-1.085z" fill="#000"/>
        </g>
    </g>
</svg>
